<?xml version="1.0" encoding="UTF-8" standalone="no"?><svg xmlns="http://www.w3.org/2000/svg" xmlns:xlink="http://www.w3.org/1999/xlink" contentScriptType="application/ecmascript" contentStyleType="text/css" height="516px" preserveAspectRatio="none" style="width:866px;height:516px;" version="1.1" viewBox="0 0 866 516" width="866px" zoomAndPan="magnify"><defs><filter height="300%" id="f1sojmrz2b79jj" width="300%" x="-1" y="-1"><feGaussianBlur result="blurOut" stdDeviation="2.0"/><feColorMatrix in="blurOut" result="blurOut2" type="matrix" values="0 0 0 0 0 0 0 0 0 0 0 0 0 0 0 0 0 0 .4 0"/><feOffset dx="4.0" dy="4.0" in="blurOut2" result="blurOut3"/><feBlend in="SourceGraphic" in2="blurOut3" mode="normal"/></filter></defs><g><!--class Cat--><rect fill="#FEFECE" filter="url(#f1sojmrz2b79jj)" height="307.1016" id="Cat" style="stroke: #A80036; stroke-width: 1.5;" width="140" x="6" y="198"/><ellipse cx="62.25" cy="214" fill="#ADD1B2" rx="11" ry="11" style="stroke: #A80036; stroke-width: 1.0;"/><path d="M65.2231,219.6431 Q64.6421,219.9419 64.0029,220.0913 Q63.3638,220.2407 62.6582,220.2407 Q60.1514,220.2407 58.8315,218.5889 Q57.5117,216.937 57.5117,213.8159 Q57.5117,210.6865 58.8315,209.0347 Q60.1514,207.3828 62.6582,207.3828 Q63.3638,207.3828 64.0112,207.5322 Q64.6587,207.6816 65.2231,207.9805 L65.2231,210.7031 Q64.5923,210.1221 63.9988,209.8523 Q63.4053,209.5825 62.7744,209.5825 Q61.4297,209.5825 60.7449,210.6492 Q60.0601,211.7158 60.0601,213.8159 Q60.0601,215.9077 60.7449,216.9744 Q61.4297,218.041 62.7744,218.041 Q63.4053,218.041 63.9988,217.7712 Q64.5923,217.5015 65.2231,216.9204 Z "/><text fill="#000000" font-family="sans-serif" font-size="12" lengthAdjust="spacingAndGlyphs" textLength="19" x="82.75" y="218.5352">Cat</text><line style="stroke: #A80036; stroke-width: 1.5;" x1="7" x2="145" y1="230" y2="230"/><rect fill="none" height="6" style="stroke: #C82930; stroke-width: 1.0;" width="6" x="14" y="238.9775"/><text fill="#000000" font-family="sans-serif" font-size="11" lengthAdjust="spacingAndGlyphs" textLength="48" x="26" y="244.6348">sleep: int</text><rect fill="none" height="6" style="stroke: #C82930; stroke-width: 1.0;" width="6" x="14" y="251.9326"/><text fill="#000000" font-family="sans-serif" font-size="11" lengthAdjust="spacingAndGlyphs" textLength="52" x="26" y="257.5898">awake: int</text><rect fill="none" height="6" style="stroke: #C82930; stroke-width: 1.0;" width="6" x="14" y="264.8877"/><text fill="#000000" font-family="sans-serif" font-size="11" lengthAdjust="spacingAndGlyphs" textLength="53" x="26" y="270.5449">digest: int</text><text fill="#000000" font-family="sans-serif" font-size="11" lengthAdjust="spacingAndGlyphs" textLength="0" x="29" y="283.5"/><rect fill="none" height="6" style="stroke: #C82930; stroke-width: 1.0;" width="6" x="14" y="290.7979"/><text fill="#000000" font-family="sans-serif" font-size="11" lengthAdjust="spacingAndGlyphs" textLength="98" x="26" y="296.4551">currentState: State</text><text fill="#000000" font-family="sans-serif" font-size="11" lengthAdjust="spacingAndGlyphs" textLength="0" x="29" y="309.4102"/><rect fill="none" height="6" style="stroke: #C82930; stroke-width: 1.0;" width="6" x="14" y="316.708"/><text fill="#000000" font-family="sans-serif" font-size="11" lengthAdjust="spacingAndGlyphs" textLength="67" x="26" y="322.3652">name: String</text><line style="stroke: #A80036; stroke-width: 1.5;" x1="7" x2="145" y1="328.6855" y2="328.6855"/><ellipse cx="17" cy="340.6631" fill="#84BE84" rx="3" ry="3" style="stroke: #038048; stroke-width: 1.0;"/><text fill="#000000" font-family="sans-serif" font-size="11" lengthAdjust="spacingAndGlyphs" textLength="57" x="26" y="343.3203">void feed()</text><ellipse cx="17" cy="353.6182" fill="#84BE84" rx="3" ry="3" style="stroke: #038048; stroke-width: 1.0;"/><text fill="#000000" font-family="sans-serif" font-size="11" lengthAdjust="spacingAndGlyphs" textLength="53" x="26" y="356.2754">void tick()</text><text fill="#000000" font-family="sans-serif" font-size="11" lengthAdjust="spacingAndGlyphs" textLength="0" x="29" y="369.2305"/><ellipse cx="17" cy="379.5283" fill="#84BE84" rx="3" ry="3" style="stroke: #038048; stroke-width: 1.0;"/><text fill="#000000" font-family="sans-serif" font-size="11" lengthAdjust="spacingAndGlyphs" textLength="99" x="26" y="382.1855">boolean isAsleep()</text><ellipse cx="17" cy="392.4834" fill="#84BE84" rx="3" ry="3" style="stroke: #038048; stroke-width: 1.0;"/><text fill="#000000" font-family="sans-serif" font-size="11" lengthAdjust="spacingAndGlyphs" textLength="98" x="26" y="395.1406">boolean isPlayful()</text><ellipse cx="17" cy="405.4385" fill="#84BE84" rx="3" ry="3" style="stroke: #038048; stroke-width: 1.0;"/><text fill="#000000" font-family="sans-serif" font-size="11" lengthAdjust="spacingAndGlyphs" textLength="103" x="26" y="408.0957">boolean isHungry()</text><ellipse cx="17" cy="418.3936" fill="#84BE84" rx="3" ry="3" style="stroke: #038048; stroke-width: 1.0;"/><text fill="#000000" font-family="sans-serif" font-size="11" lengthAdjust="spacingAndGlyphs" textLength="114" x="26" y="421.0508">boolean isDigesting()</text><ellipse cx="17" cy="431.3486" fill="#84BE84" rx="3" ry="3" style="stroke: #038048; stroke-width: 1.0;"/><text fill="#000000" font-family="sans-serif" font-size="11" lengthAdjust="spacingAndGlyphs" textLength="90" x="26" y="434.0059">boolean isDead()</text><text fill="#000000" font-family="sans-serif" font-size="11" lengthAdjust="spacingAndGlyphs" textLength="0" x="29" y="446.9609"/><ellipse cx="17" cy="457.2588" fill="#84BE84" rx="3" ry="3" style="stroke: #038048; stroke-width: 1.0;"/><text fill="#000000" font-family="sans-serif" font-size="11" lengthAdjust="spacingAndGlyphs" textLength="70" x="26" y="459.916">int getSleep()</text><ellipse cx="17" cy="470.2139" fill="#84BE84" rx="3" ry="3" style="stroke: #038048; stroke-width: 1.0;"/><text fill="#000000" font-family="sans-serif" font-size="11" lengthAdjust="spacingAndGlyphs" textLength="76" x="26" y="472.8711">int getDigest()</text><ellipse cx="17" cy="483.1689" fill="#84BE84" rx="3" ry="3" style="stroke: #038048; stroke-width: 1.0;"/><text fill="#000000" font-family="sans-serif" font-size="11" lengthAdjust="spacingAndGlyphs" textLength="76" x="26" y="485.8262">int getAwake()</text><ellipse cx="17" cy="496.124" fill="#84BE84" rx="3" ry="3" style="stroke: #038048; stroke-width: 1.0;"/><text fill="#000000" font-family="sans-serif" font-size="11" lengthAdjust="spacingAndGlyphs" textLength="90" x="26" y="498.7813">String getName()</text><!--class State--><rect fill="#FEFECE" filter="url(#f1sojmrz2b79jj)" height="112.7754" id="State" style="stroke: #A80036; stroke-width: 1.5;" width="191" x="366.5" y="8"/><ellipse cx="443.75" cy="24" fill="#A9DCDF" rx="11" ry="11" style="stroke: #A80036; stroke-width: 1.0;"/><path d="M443.8633,19.3481 L442.7095,24.4199 L445.0254,24.4199 Z M442.3691,17.1069 L445.3657,17.1069 L448.7109,29.5 L446.2622,29.5 L445.4985,26.437 L442.2197,26.437 L441.4727,29.5 L439.0239,29.5 Z "/><text fill="#000000" font-family="sans-serif" font-size="12" font-style="italic" lengthAdjust="spacingAndGlyphs" textLength="28" x="464.25" y="28.5352">State</text><line style="stroke: #A80036; stroke-width: 1.5;" x1="367.5" x2="556.5" y1="40" y2="40"/><polygon fill="none" points="377.5,46.9775,381.5,50.9775,377.5,54.9775,373.5,50.9775" style="stroke: #B38D22; stroke-width: 1.0;"/><text fill="#000000" font-family="sans-serif" font-size="11" lengthAdjust="spacingAndGlyphs" text-decoration="underline" textLength="79" x="386.5" y="54.6348">logger: Logger</text><line style="stroke: #000000; stroke-width: 1.0;" x1="386.5" x2="465.5" y1="56.6348" y2="56.6348"/><rect fill="none" height="6" style="stroke: #C82930; stroke-width: 1.0;" width="6" x="374.5" y="61.9326"/><text fill="#000000" font-family="sans-serif" font-size="11" lengthAdjust="spacingAndGlyphs" textLength="24" x="386.5" y="67.5898">t: int</text><rect fill="none" height="6" style="stroke: #C82930; stroke-width: 1.0;" width="6" x="374.5" y="74.8877"/><text fill="#000000" font-family="sans-serif" font-size="11" lengthAdjust="spacingAndGlyphs" textLength="66" x="386.5" y="80.5449">duration: int</text><line style="stroke: #A80036; stroke-width: 1.5;" x1="367.5" x2="556.5" y1="86.8652" y2="86.8652"/><text fill="#000000" font-family="sans-serif" font-size="11" lengthAdjust="spacingAndGlyphs" textLength="96" x="372.5" y="101.5">State tick(cat: Cat)</text><text fill="#000000" font-family="sans-serif" font-size="11" lengthAdjust="spacingAndGlyphs" textLength="179" x="372.5" y="114.4551">abstract State successor(cat: Cat)</text><!--class DigestingState--><rect fill="#FEFECE" filter="url(#f1sojmrz2b79jj)" height="48" id="DigestingState" style="stroke: #A80036; stroke-width: 1.5;" width="113" x="181.5" y="327.5"/><ellipse cx="196.5" cy="343.5" fill="#ADD1B2" rx="11" ry="11" style="stroke: #A80036; stroke-width: 1.0;"/><path d="M199.4731,349.1431 Q198.8921,349.4419 198.2529,349.5913 Q197.6138,349.7407 196.9082,349.7407 Q194.4014,349.7407 193.0815,348.0889 Q191.7617,346.437 191.7617,343.3159 Q191.7617,340.1865 193.0815,338.5347 Q194.4014,336.8828 196.9082,336.8828 Q197.6138,336.8828 198.2612,337.0322 Q198.9087,337.1816 199.4731,337.4805 L199.4731,340.2031 Q198.8423,339.6221 198.2488,339.3523 Q197.6553,339.0825 197.0244,339.0825 Q195.6797,339.0825 194.9949,340.1492 Q194.3101,341.2158 194.3101,343.3159 Q194.3101,345.4077 194.9949,346.4744 Q195.6797,347.541 197.0244,347.541 Q197.6553,347.541 198.2488,347.2712 Q198.8423,347.0015 199.4731,346.4204 Z "/><text fill="#000000" font-family="sans-serif" font-size="12" lengthAdjust="spacingAndGlyphs" textLength="81" x="210.5" y="348.0352">DigestingState</text><line style="stroke: #A80036; stroke-width: 1.5;" x1="182.5" x2="293.5" y1="359.5" y2="359.5"/><line style="stroke: #A80036; stroke-width: 1.5;" x1="182.5" x2="293.5" y1="367.5" y2="367.5"/><!--class HungryState--><rect fill="#FEFECE" filter="url(#f1sojmrz2b79jj)" height="60.9551" id="HungryState" style="stroke: #A80036; stroke-width: 1.5;" width="121" x="329.5" y="321"/><ellipse cx="353.5" cy="337" fill="#ADD1B2" rx="11" ry="11" style="stroke: #A80036; stroke-width: 1.0;"/><path d="M356.4731,342.6431 Q355.8921,342.9419 355.2529,343.0913 Q354.6138,343.2407 353.9082,343.2407 Q351.4014,343.2407 350.0815,341.5889 Q348.7617,339.937 348.7617,336.8159 Q348.7617,333.6865 350.0815,332.0347 Q351.4014,330.3828 353.9082,330.3828 Q354.6138,330.3828 355.2612,330.5322 Q355.9087,330.6816 356.4731,330.9805 L356.4731,333.7031 Q355.8423,333.1221 355.2488,332.8523 Q354.6553,332.5825 354.0244,332.5825 Q352.6797,332.5825 351.9949,333.6492 Q351.3101,334.7158 351.3101,336.8159 Q351.3101,338.9077 351.9949,339.9744 Q352.6797,341.041 354.0244,341.041 Q354.6553,341.041 355.2488,340.7712 Q355.8423,340.5015 356.4731,339.9204 Z "/><text fill="#000000" font-family="sans-serif" font-size="12" lengthAdjust="spacingAndGlyphs" textLength="69" x="369.5" y="341.5352">HungryState</text><line style="stroke: #A80036; stroke-width: 1.5;" x1="330.5" x2="449.5" y1="353" y2="353"/><line style="stroke: #A80036; stroke-width: 1.5;" x1="330.5" x2="449.5" y1="361" y2="361"/><text fill="#000000" font-family="sans-serif" font-size="11" lengthAdjust="spacingAndGlyphs" textLength="109" x="335.5" y="375.6348">State feed(a: Animal)</text><!--class PlayfulState--><rect fill="#FEFECE" filter="url(#f1sojmrz2b79jj)" height="48" id="PlayfulState" style="stroke: #A80036; stroke-width: 1.5;" width="97" x="485.5" y="327.5"/><ellipse cx="500.5" cy="343.5" fill="#ADD1B2" rx="11" ry="11" style="stroke: #A80036; stroke-width: 1.0;"/><path d="M503.4731,349.1431 Q502.8921,349.4419 502.2529,349.5913 Q501.6138,349.7407 500.9082,349.7407 Q498.4014,349.7407 497.0815,348.0889 Q495.7617,346.437 495.7617,343.3159 Q495.7617,340.1865 497.0815,338.5347 Q498.4014,336.8828 500.9082,336.8828 Q501.6138,336.8828 502.2612,337.0322 Q502.9087,337.1816 503.4731,337.4805 L503.4731,340.2031 Q502.8423,339.6221 502.2488,339.3523 Q501.6553,339.0825 501.0244,339.0825 Q499.6797,339.0825 498.9949,340.1492 Q498.3101,341.2158 498.3101,343.3159 Q498.3101,345.4077 498.9949,346.4744 Q499.6797,347.541 501.0244,347.541 Q501.6553,347.541 502.2488,347.2712 Q502.8423,347.0015 503.4731,346.4204 Z "/><text fill="#000000" font-family="sans-serif" font-size="12" lengthAdjust="spacingAndGlyphs" textLength="65" x="514.5" y="348.0352">PlayfulState</text><line style="stroke: #A80036; stroke-width: 1.5;" x1="486.5" x2="581.5" y1="359.5" y2="359.5"/><line style="stroke: #A80036; stroke-width: 1.5;" x1="486.5" x2="581.5" y1="367.5" y2="367.5"/><!--class SleepingState--><rect fill="#FEFECE" filter="url(#f1sojmrz2b79jj)" height="48" id="SleepingState" style="stroke: #A80036; stroke-width: 1.5;" width="108" x="618" y="327.5"/><ellipse cx="633" cy="343.5" fill="#ADD1B2" rx="11" ry="11" style="stroke: #A80036; stroke-width: 1.0;"/><path d="M635.9731,349.1431 Q635.3921,349.4419 634.7529,349.5913 Q634.1138,349.7407 633.4082,349.7407 Q630.9014,349.7407 629.5815,348.0889 Q628.2617,346.437 628.2617,343.3159 Q628.2617,340.1865 629.5815,338.5347 Q630.9014,336.8828 633.4082,336.8828 Q634.1138,336.8828 634.7612,337.0322 Q635.4087,337.1816 635.9731,337.4805 L635.9731,340.2031 Q635.3423,339.6221 634.7488,339.3523 Q634.1553,339.0825 633.5244,339.0825 Q632.1797,339.0825 631.4949,340.1492 Q630.8101,341.2158 630.8101,343.3159 Q630.8101,345.4077 631.4949,346.4744 Q632.1797,347.541 633.5244,347.541 Q634.1553,347.541 634.7488,347.2712 Q635.3423,347.0015 635.9731,346.4204 Z "/><text fill="#000000" font-family="sans-serif" font-size="12" lengthAdjust="spacingAndGlyphs" textLength="76" x="647" y="348.0352">SleepingState</text><line style="stroke: #A80036; stroke-width: 1.5;" x1="619" x2="725" y1="359.5" y2="359.5"/><line style="stroke: #A80036; stroke-width: 1.5;" x1="619" x2="725" y1="367.5" y2="367.5"/><!--class DeathState--><rect fill="#FEFECE" filter="url(#f1sojmrz2b79jj)" height="48" id="DeathState" style="stroke: #A80036; stroke-width: 1.5;" width="94" x="761" y="327.5"/><ellipse cx="776" cy="343.5" fill="#ADD1B2" rx="11" ry="11" style="stroke: #A80036; stroke-width: 1.0;"/><path d="M778.9731,349.1431 Q778.3921,349.4419 777.7529,349.5913 Q777.1138,349.7407 776.4082,349.7407 Q773.9014,349.7407 772.5815,348.0889 Q771.2617,346.437 771.2617,343.3159 Q771.2617,340.1865 772.5815,338.5347 Q773.9014,336.8828 776.4082,336.8828 Q777.1138,336.8828 777.7612,337.0322 Q778.4087,337.1816 778.9731,337.4805 L778.9731,340.2031 Q778.3423,339.6221 777.7488,339.3523 Q777.1553,339.0825 776.5244,339.0825 Q775.1797,339.0825 774.4949,340.1492 Q773.8101,341.2158 773.8101,343.3159 Q773.8101,345.4077 774.4949,346.4744 Q775.1797,347.541 776.5244,347.541 Q777.1553,347.541 777.7488,347.2712 Q778.3423,347.0015 778.9731,346.4204 Z "/><text fill="#000000" font-family="sans-serif" font-size="12" lengthAdjust="spacingAndGlyphs" textLength="62" x="790" y="348.0352">DeathState</text><line style="stroke: #A80036; stroke-width: 1.5;" x1="762" x2="854" y1="359.5" y2="359.5"/><line style="stroke: #A80036; stroke-width: 1.5;" x1="762" x2="854" y1="367.5" y2="367.5"/><!--link State to DigestingState--><path d="M371.6049,134.5682 C350.4132,153.6701 329.0651,175.3822 312,198 C280.9066,239.2107 257.8194,295.5609 246.2707,327.2634 " fill="none" id="State-DigestingState" style="stroke: #A80036; stroke-width: 1.0;"/><polygon fill="none" points="367.2838,129.0478,386.9445,121.1448,376.5033,139.5835,367.2838,129.0478" style="stroke: #A80036; stroke-width: 1.0;"/><!--link State to HungryState--><path d="M442.8647,140.7755 C428.0596,199.7902 408.3381,278.4023 397.6578,320.975 " fill="none" id="State-HungryState" style="stroke: #A80036; stroke-width: 1.0;"/><polygon fill="none" points="436.1188,138.8975,447.7751,121.202,449.698,142.3042,436.1188,138.8975" style="stroke: #A80036; stroke-width: 1.0;"/><!--link State to PlayfulState--><path d="M481.1704,140.9153 C496.7369,202.9652 517.7207,286.609 527.9234,327.2779 " fill="none" id="State-PlayfulState" style="stroke: #A80036; stroke-width: 1.0;"/><polygon fill="none" points="474.302,142.3042,476.2249,121.202,487.8812,138.8975,474.302,142.3042" style="stroke: #A80036; stroke-width: 1.0;"/><!--link State to SleepingState--><path d="M544.8045,135.0825 C564.3982,154.2368 584.1737,175.8446 600,198 C629.8563,239.7962 652.4637,295.9337 663.8322,327.4414 " fill="none" id="State-SleepingState" style="stroke: #A80036; stroke-width: 1.0;"/><polygon fill="none" points="539.9497,140.1256,530.2784,121.2718,549.5962,129.9794,539.9497,140.1256" style="stroke: #A80036; stroke-width: 1.0;"/><!--link State to DeathState--><path d="M576.5752,97.4519 C632.7574,118.508 697.8662,150.8843 743,198 C778.4345,234.9905 795.9425,294.2096 803.3738,327.2363 " fill="none" id="State-DeathState" style="stroke: #A80036; stroke-width: 1.0;"/><polygon fill="none" points="573.9711,103.9545,557.5149,90.6055,578.7039,90.7787,573.9711,103.9545" style="stroke: #A80036; stroke-width: 1.0;"/><!--link State to Cat--><path d="M366.4743,88.5219 C302.5299,108.7318 220.114,143.2846 164,198 C160.768,201.1514 157.6171,204.4469 154.5486,207.8594 " fill="none" id="State-Cat" style="stroke: #A80036; stroke-width: 1.0;"/><polygon fill="#A80036" points="146.1204,217.7641,153.0551,215.7868,153.8971,208.625,146.9624,210.6023,146.1204,217.7641" style="stroke: #A80036; stroke-width: 1.0;"/><text fill="#000000" font-family="sans-serif" font-size="13" lengthAdjust="spacingAndGlyphs" textLength="80" x="221" y="164.5684">current state</text><!--
@startuml

class Cat {
	-sleep: int
    -awake: int
    -digest: int

    -currentState: State

    -name: String
    
    +void feed()
    +void tick()

    +boolean isAsleep()
    +boolean isPlayful()
    +boolean isHungry()
    +boolean isDigesting()
    +boolean isDead()

    +int getSleep()
    +int getDigest()
    +int getAwake()
    +String getName()
}

abstract class State {
	#{static}logger: Logger
    -t: int
    -duration: int
    State tick(cat: Cat)
    abstract State successor(cat: Cat)
}

class DigestingState extends State {
}

class HungryState extends State {
    State feed(a: Animal)
}

class PlayfulState extends State {
}

class SleepingState extends State {
}

class DeathState extends State {
}

State - -* Cat : current state

@enduml

PlantUML version 1.2018.07(Mon Jun 11 19:29:06 CEST 2018)
(GPL source distribution)
Java Runtime: Java(TM) SE Runtime Environment
JVM: Java HotSpot(TM) 64-Bit Server VM
Java Version: 1.8.0_144-b01
Operating System: Mac OS X
OS Version: 10.13.6
Default Encoding: UTF-8
Language: en
Country: US
--></g></svg>