<?xml version="1.0" encoding="UTF-8" standalone="no"?><svg xmlns="http://www.w3.org/2000/svg" xmlns:xlink="http://www.w3.org/1999/xlink" contentScriptType="application/ecmascript" contentStyleType="text/css" height="441px" preserveAspectRatio="none" style="width:964px;height:441px;" version="1.1" viewBox="0 0 964 441" width="964px" zoomAndPan="magnify"><defs><filter height="300%" id="fofs3wx5p84sv" width="300%" x="-1" y="-1"><feGaussianBlur result="blurOut" stdDeviation="2.0"/><feColorMatrix in="blurOut" result="blurOut2" type="matrix" values="0 0 0 0 0 0 0 0 0 0 0 0 0 0 0 0 0 0 .4 0"/><feOffset dx="4.0" dy="4.0" in="blurOut2" result="blurOut3"/><feBlend in="SourceGraphic" in2="blurOut3" mode="normal"/></filter></defs><g><!--class GenusSpecies--><rect fill="#FEFECE" filter="url(#fofs3wx5p84sv)" height="167.8551" id="GenusSpecies" style="stroke: #A80036; stroke-width: 1.5;" width="157" x="6" y="135.5"/><ellipse cx="41.7" cy="151.5" fill="#EB937F" rx="11" ry="11" style="stroke: #A80036; stroke-width: 1.0;"/><path d="M44.7156,158 L37.7313,158 L37.7313,145.8594 L44.7156,145.8594 L44.7156,147.9688 L40.2938,147.9688 L40.2938,150.6406 L44.4188,150.6406 L44.4188,152.75 L40.2938,152.75 L40.2938,155.875 L44.7156,155.875 L44.7156,158 Z "/><text fill="#000000" font-family="sans-serif" font-size="12" lengthAdjust="spacingAndGlyphs" textLength="79" x="60.3" y="156.156">GenusSpecies</text><line style="stroke: #A80036; stroke-width: 1.5;" x1="7" x2="162" y1="167.5" y2="167.5"/><text fill="#000000" font-family="sans-serif" font-size="11" lengthAdjust="spacingAndGlyphs" textLength="30" x="26" y="183.2589">LION,</text><text fill="#000000" font-family="sans-serif" font-size="11" lengthAdjust="spacingAndGlyphs" textLength="48" x="26" y="198.2408">GAZELLE,</text><text fill="#000000" font-family="sans-serif" font-size="11" lengthAdjust="spacingAndGlyphs" textLength="58" x="26" y="213.2227">FLAMINGO</text><text fill="#000000" font-family="sans-serif" font-size="11" lengthAdjust="spacingAndGlyphs" textLength="0" x="29" y="228.2046"/><rect fill="none" height="6" style="stroke: #C82930; stroke-width: 1.0;" width="6" x="14" y="237.4185"/><text fill="#000000" font-family="sans-serif" font-size="11" lengthAdjust="spacingAndGlyphs" textLength="109" x="26" y="243.1865">readableType: String</text><rect fill="none" height="6" style="stroke: #C82930; stroke-width: 1.0;" width="6" x="14" y="252.4004"/><text fill="#000000" font-family="sans-serif" font-size="11" lengthAdjust="spacingAndGlyphs" textLength="61" x="26" y="258.1684">type: String</text><line style="stroke: #A80036; stroke-width: 1.5;" x1="7" x2="162" y1="265.3913" y2="265.3913"/><ellipse cx="17" cy="278.3823" fill="#84BE84" rx="3" ry="3" style="stroke: #038048; stroke-width: 1.0;"/><text fill="#000000" font-family="sans-serif" font-size="11" lengthAdjust="spacingAndGlyphs" textLength="131" x="26" y="281.1502">String getReadableType()</text><ellipse cx="17" cy="293.3642" fill="#84BE84" rx="3" ry="3" style="stroke: #038048; stroke-width: 1.0;"/><text fill="#000000" font-family="sans-serif" font-size="11" lengthAdjust="spacingAndGlyphs" textLength="83" x="26" y="296.1321">String getType()</text><!--class Animal--><rect fill="#FEFECE" filter="url(#fofs3wx5p84sv)" height="422.5472" id="Animal" style="stroke: #A80036; stroke-width: 1.5;" width="189" x="308" y="8"/><ellipse cx="378.75" cy="24" fill="#ADD1B2" rx="11" ry="11" style="stroke: #A80036; stroke-width: 1.0;"/><path d="M378.4375,20.3281 Q376.9531,20.3281 376.1719,21.4375 Q375.3906,22.5469 375.3906,24.4688 Q375.3906,26.4063 376.1094,27.4688 Q376.8281,28.5313 378.4375,28.5313 Q379.1563,28.5313 379.9063,28.3594 Q380.6563,28.1875 381.5313,27.875 L381.5313,30.0469 Q380.7188,30.3594 379.9375,30.5156 Q379.1563,30.6719 378.1875,30.6719 Q376.3125,30.6719 375.1016,29.8984 Q373.8906,29.125 373.3125,27.7188 Q372.7344,26.3125 372.7344,24.4531 Q372.7344,22.6094 373.3984,21.2031 Q374.0625,19.7969 375.3281,18.9922 Q376.5938,18.1875 378.4375,18.1875 Q379.3281,18.1875 380.2422,18.4219 Q381.1563,18.6563 381.9844,19.0469 L381.1563,21.1406 Q380.4688,20.8125 379.7813,20.5703 Q379.0938,20.3281 378.4375,20.3281 Z "/><text fill="#000000" font-family="sans-serif" font-size="12" lengthAdjust="spacingAndGlyphs" textLength="39" x="399.25" y="28.656">Animal</text><line style="stroke: #A80036; stroke-width: 1.5;" x1="309" x2="496" y1="40" y2="40"/><rect fill="none" height="6" style="stroke: #C82930; stroke-width: 1.0;" width="6" x="316" y="49.9909"/><text fill="#000000" font-family="sans-serif" font-size="11" lengthAdjust="spacingAndGlyphs" textLength="47" x="328" y="55.7589">sleep: int</text><rect fill="none" height="6" style="stroke: #C82930; stroke-width: 1.0;" width="6" x="316" y="64.9728"/><text fill="#000000" font-family="sans-serif" font-size="11" lengthAdjust="spacingAndGlyphs" textLength="53" x="328" y="70.7408">awake: int</text><rect fill="none" height="6" style="stroke: #C82930; stroke-width: 1.0;" width="6" x="316" y="79.9547"/><text fill="#000000" font-family="sans-serif" font-size="11" lengthAdjust="spacingAndGlyphs" textLength="52" x="328" y="85.7227">digest: int</text><text fill="#000000" font-family="sans-serif" font-size="11" lengthAdjust="spacingAndGlyphs" textLength="0" x="331" y="100.7046"/><rect fill="none" height="6" style="stroke: #C82930; stroke-width: 1.0;" width="6" x="316" y="109.9185"/><text fill="#000000" font-family="sans-serif" font-size="11" lengthAdjust="spacingAndGlyphs" textLength="97" x="328" y="115.6865">currentState: State</text><text fill="#000000" font-family="sans-serif" font-size="11" lengthAdjust="spacingAndGlyphs" textLength="0" x="331" y="130.6684"/><rect fill="none" height="6" style="stroke: #C82930; stroke-width: 1.0;" width="6" x="316" y="139.8823"/><text fill="#000000" font-family="sans-serif" font-size="11" lengthAdjust="spacingAndGlyphs" textLength="67" x="328" y="145.6502">name: String</text><rect fill="none" height="6" style="stroke: #C82930; stroke-width: 1.0;" width="6" x="316" y="154.8642"/><text fill="#000000" font-family="sans-serif" font-size="11" lengthAdjust="spacingAndGlyphs" textLength="147" x="328" y="160.6321">genusSpecies: GenusSpecies</text><rect fill="none" height="6" style="stroke: #C82930; stroke-width: 1.0;" width="6" x="316" y="169.846"/><text fill="#000000" font-family="sans-serif" font-size="11" lengthAdjust="spacingAndGlyphs" textLength="128" x="328" y="175.614">devours: GenusSpecies[]</text><rect fill="none" height="6" style="stroke: #C82930; stroke-width: 1.0;" width="6" x="316" y="184.8279"/><text fill="#000000" font-family="sans-serif" font-size="11" lengthAdjust="spacingAndGlyphs" textLength="112" x="328" y="190.5959">collectionAmount: int</text><line style="stroke: #A80036; stroke-width: 1.5;" x1="309" x2="496" y1="197.8189" y2="197.8189"/><ellipse cx="319" cy="210.8098" fill="#84BE84" rx="3" ry="3" style="stroke: #038048; stroke-width: 1.0;"/><text fill="#000000" font-family="sans-serif" font-size="11" lengthAdjust="spacingAndGlyphs" textLength="55" x="328" y="213.5778">void feed()</text><ellipse cx="319" cy="225.7917" fill="#84BE84" rx="3" ry="3" style="stroke: #038048; stroke-width: 1.0;"/><text fill="#000000" font-family="sans-serif" font-size="11" lengthAdjust="spacingAndGlyphs" textLength="50" x="328" y="228.5597">void tick()</text><ellipse cx="319" cy="240.7736" fill="#84BE84" rx="3" ry="3" style="stroke: #038048; stroke-width: 1.0;"/><text fill="#000000" font-family="sans-serif" font-size="11" lengthAdjust="spacingAndGlyphs" textLength="56" x="328" y="243.5416">int collect()</text><ellipse cx="319" cy="255.7555" fill="#84BE84" rx="3" ry="3" style="stroke: #038048; stroke-width: 1.0;"/><text fill="#000000" font-family="sans-serif" font-size="11" lengthAdjust="spacingAndGlyphs" textLength="163" x="328" y="258.5235">boolean devours(Animal other)</text><text fill="#000000" font-family="sans-serif" font-size="11" lengthAdjust="spacingAndGlyphs" textLength="0" x="331" y="273.5053"/><ellipse cx="319" cy="285.7193" fill="#84BE84" rx="3" ry="3" style="stroke: #038048; stroke-width: 1.0;"/><text fill="#000000" font-family="sans-serif" font-size="11" lengthAdjust="spacingAndGlyphs" textLength="94" x="328" y="288.4872">boolean isAsleep()</text><ellipse cx="319" cy="300.7011" fill="#84BE84" rx="3" ry="3" style="stroke: #038048; stroke-width: 1.0;"/><text fill="#000000" font-family="sans-serif" font-size="11" lengthAdjust="spacingAndGlyphs" textLength="96" x="328" y="303.4691">boolean isPlayful()</text><ellipse cx="319" cy="315.683" fill="#84BE84" rx="3" ry="3" style="stroke: #038048; stroke-width: 1.0;"/><text fill="#000000" font-family="sans-serif" font-size="11" lengthAdjust="spacingAndGlyphs" textLength="100" x="328" y="318.451">boolean isHungry()</text><ellipse cx="319" cy="330.6649" fill="#84BE84" rx="3" ry="3" style="stroke: #038048; stroke-width: 1.0;"/><text fill="#000000" font-family="sans-serif" font-size="11" lengthAdjust="spacingAndGlyphs" textLength="110" x="328" y="333.4329">boolean isDigesting()</text><ellipse cx="319" cy="345.6468" fill="#84BE84" rx="3" ry="3" style="stroke: #038048; stroke-width: 1.0;"/><text fill="#000000" font-family="sans-serif" font-size="11" lengthAdjust="spacingAndGlyphs" textLength="87" x="328" y="348.4148">boolean isDead()</text><text fill="#000000" font-family="sans-serif" font-size="11" lengthAdjust="spacingAndGlyphs" textLength="0" x="331" y="363.3967"/><ellipse cx="319" cy="375.6106" fill="#84BE84" rx="3" ry="3" style="stroke: #038048; stroke-width: 1.0;"/><text fill="#000000" font-family="sans-serif" font-size="11" lengthAdjust="spacingAndGlyphs" textLength="68" x="328" y="378.3786">int getSleep()</text><ellipse cx="319" cy="390.5925" fill="#84BE84" rx="3" ry="3" style="stroke: #038048; stroke-width: 1.0;"/><text fill="#000000" font-family="sans-serif" font-size="11" lengthAdjust="spacingAndGlyphs" textLength="73" x="328" y="393.3604">int getDigest()</text><ellipse cx="319" cy="405.5744" fill="#84BE84" rx="3" ry="3" style="stroke: #038048; stroke-width: 1.0;"/><text fill="#000000" font-family="sans-serif" font-size="11" lengthAdjust="spacingAndGlyphs" textLength="74" x="328" y="408.3423">int getAwake()</text><ellipse cx="319" cy="420.5563" fill="#84BE84" rx="3" ry="3" style="stroke: #038048; stroke-width: 1.0;"/><text fill="#000000" font-family="sans-serif" font-size="11" lengthAdjust="spacingAndGlyphs" textLength="88" x="328" y="423.3242">String getName()</text><!--class State--><rect fill="#FEFECE" filter="url(#fofs3wx5p84sv)" height="137.8913" id="State" style="stroke: #A80036; stroke-width: 1.5;" width="142" x="636" y="150.5"/><ellipse cx="689.25" cy="166.5" fill="#A9DCDF" rx="11" ry="11" style="stroke: #A80036; stroke-width: 1.0;"/><path d="M692.2031,171.75 L691.3281,168.8594 L686.9063,168.8594 L686.0156,171.75 L683.25,171.75 L687.5313,159.5625 L690.6719,159.5625 L694.9844,171.75 L692.2031,171.75 Z M690.7188,166.7031 L689.8281,163.875 Q689.75,163.5938 689.6094,163.1484 Q689.4688,162.7031 689.3359,162.2422 Q689.2031,161.7813 689.1094,161.4531 Q689.0313,161.7813 688.8828,162.2891 Q688.7344,162.7969 688.6094,163.2422 Q688.4844,163.6875 688.4219,163.875 L687.5469,166.7031 L690.7188,166.7031 Z "/><text fill="#000000" font-family="sans-serif" font-size="12" font-style="italic" lengthAdjust="spacingAndGlyphs" textLength="27" x="709.75" y="171.156">State</text><line style="stroke: #A80036; stroke-width: 1.5;" x1="637" x2="777" y1="182.5" y2="182.5"/><polygon fill="none" points="647,190.4909,651,194.4909,647,198.4909,643,194.4909" style="stroke: #B38D22; stroke-width: 1.0;"/><text fill="#000000" font-family="sans-serif" font-size="11" lengthAdjust="spacingAndGlyphs" text-decoration="underline" textLength="79" x="656" y="198.2589">logger: Logger</text><line style="stroke: #000000; stroke-width: 1.0;" x1="656" x2="735" y1="200.2589" y2="200.2589"/><polygon fill="none" points="647,205.4728,651,209.4728,647,213.4728,643,209.4728" style="stroke: #B38D22; stroke-width: 1.0;"/><text fill="#000000" font-family="sans-serif" font-size="11" lengthAdjust="spacingAndGlyphs" textLength="77" x="656" y="213.2408">animal: Animal</text><rect fill="none" height="6" style="stroke: #C82930; stroke-width: 1.0;" width="6" x="644" y="222.4547"/><text fill="#000000" font-family="sans-serif" font-size="11" lengthAdjust="spacingAndGlyphs" textLength="24" x="656" y="228.2227">t: int</text><rect fill="none" height="6" style="stroke: #C82930; stroke-width: 1.0;" width="6" x="644" y="237.4366"/><text fill="#000000" font-family="sans-serif" font-size="11" lengthAdjust="spacingAndGlyphs" textLength="66" x="656" y="243.2046">duration: int</text><line style="stroke: #A80036; stroke-width: 1.5;" x1="637" x2="777" y1="250.4276" y2="250.4276"/><text fill="#000000" font-family="sans-serif" font-size="11" lengthAdjust="spacingAndGlyphs" textLength="53" x="642" y="266.1865">State tick()</text><text fill="#000000" font-family="sans-serif" font-size="11" lengthAdjust="spacingAndGlyphs" textLength="130" x="642" y="281.1684">abstract State successor()</text><!--class DigestingState--><rect fill="#FEFECE" filter="url(#fofs3wx5p84sv)" height="48" id="DigestingState" style="stroke: #A80036; stroke-width: 1.5;" width="114" x="839" y="13.5"/><ellipse cx="854" cy="29.5" fill="#ADD1B2" rx="11" ry="11" style="stroke: #A80036; stroke-width: 1.0;"/><path d="M853.6875,25.8281 Q852.2031,25.8281 851.4219,26.9375 Q850.6406,28.0469 850.6406,29.9688 Q850.6406,31.9063 851.3594,32.9688 Q852.0781,34.0313 853.6875,34.0313 Q854.4063,34.0313 855.1563,33.8594 Q855.9063,33.6875 856.7813,33.375 L856.7813,35.5469 Q855.9688,35.8594 855.1875,36.0156 Q854.4063,36.1719 853.4375,36.1719 Q851.5625,36.1719 850.3516,35.3984 Q849.1406,34.625 848.5625,33.2188 Q847.9844,31.8125 847.9844,29.9531 Q847.9844,28.1094 848.6484,26.7031 Q849.3125,25.2969 850.5781,24.4922 Q851.8438,23.6875 853.6875,23.6875 Q854.5781,23.6875 855.4922,23.9219 Q856.4063,24.1563 857.2344,24.5469 L856.4063,26.6406 Q855.7188,26.3125 855.0313,26.0703 Q854.3438,25.8281 853.6875,25.8281 Z "/><text fill="#000000" font-family="sans-serif" font-size="12" lengthAdjust="spacingAndGlyphs" textLength="82" x="868" y="34.156">DigestingState</text><line style="stroke: #A80036; stroke-width: 1.5;" x1="840" x2="952" y1="45.5" y2="45.5"/><line style="stroke: #A80036; stroke-width: 1.5;" x1="840" x2="952" y1="53.5" y2="53.5"/><!--class HungryState--><rect fill="#FEFECE" filter="url(#fofs3wx5p84sv)" height="62.9819" id="HungryState" style="stroke: #A80036; stroke-width: 1.5;" width="102" x="845" y="97"/><ellipse cx="860" cy="113" fill="#ADD1B2" rx="11" ry="11" style="stroke: #A80036; stroke-width: 1.0;"/><path d="M859.6875,109.3281 Q858.2031,109.3281 857.4219,110.4375 Q856.6406,111.5469 856.6406,113.4688 Q856.6406,115.4063 857.3594,116.4688 Q858.0781,117.5313 859.6875,117.5313 Q860.4063,117.5313 861.1563,117.3594 Q861.9063,117.1875 862.7813,116.875 L862.7813,119.0469 Q861.9688,119.3594 861.1875,119.5156 Q860.4063,119.6719 859.4375,119.6719 Q857.5625,119.6719 856.3516,118.8984 Q855.1406,118.125 854.5625,116.7188 Q853.9844,115.3125 853.9844,113.4531 Q853.9844,111.6094 854.6484,110.2031 Q855.3125,108.7969 856.5781,107.9922 Q857.8438,107.1875 859.6875,107.1875 Q860.5781,107.1875 861.4922,107.4219 Q862.4063,107.6563 863.2344,108.0469 L862.4063,110.1406 Q861.7188,109.8125 861.0313,109.5703 Q860.3438,109.3281 859.6875,109.3281 Z "/><text fill="#000000" font-family="sans-serif" font-size="12" lengthAdjust="spacingAndGlyphs" textLength="70" x="874" y="117.656">HungryState</text><line style="stroke: #A80036; stroke-width: 1.5;" x1="846" x2="946" y1="129" y2="129"/><line style="stroke: #A80036; stroke-width: 1.5;" x1="846" x2="946" y1="137" y2="137"/><text fill="#000000" font-family="sans-serif" font-size="11" lengthAdjust="spacingAndGlyphs" textLength="58" x="851" y="152.7589">State feed()</text><!--class PlayfulState--><rect fill="#FEFECE" filter="url(#fofs3wx5p84sv)" height="48" id="PlayfulState" style="stroke: #A80036; stroke-width: 1.5;" width="98" x="847" y="195.5"/><ellipse cx="862" cy="211.5" fill="#ADD1B2" rx="11" ry="11" style="stroke: #A80036; stroke-width: 1.0;"/><path d="M861.6875,207.8281 Q860.2031,207.8281 859.4219,208.9375 Q858.6406,210.0469 858.6406,211.9688 Q858.6406,213.9063 859.3594,214.9688 Q860.0781,216.0313 861.6875,216.0313 Q862.4063,216.0313 863.1563,215.8594 Q863.9063,215.6875 864.7813,215.375 L864.7813,217.5469 Q863.9688,217.8594 863.1875,218.0156 Q862.4063,218.1719 861.4375,218.1719 Q859.5625,218.1719 858.3516,217.3984 Q857.1406,216.625 856.5625,215.2188 Q855.9844,213.8125 855.9844,211.9531 Q855.9844,210.1094 856.6484,208.7031 Q857.3125,207.2969 858.5781,206.4922 Q859.8438,205.6875 861.6875,205.6875 Q862.5781,205.6875 863.4922,205.9219 Q864.4063,206.1563 865.2344,206.5469 L864.4063,208.6406 Q863.7188,208.3125 863.0313,208.0703 Q862.3438,207.8281 861.6875,207.8281 Z "/><text fill="#000000" font-family="sans-serif" font-size="12" lengthAdjust="spacingAndGlyphs" textLength="66" x="876" y="216.156">PlayfulState</text><line style="stroke: #A80036; stroke-width: 1.5;" x1="848" x2="944" y1="227.5" y2="227.5"/><line style="stroke: #A80036; stroke-width: 1.5;" x1="848" x2="944" y1="235.5" y2="235.5"/><!--class SleepingState--><rect fill="#FEFECE" filter="url(#fofs3wx5p84sv)" height="48" id="SleepingState" style="stroke: #A80036; stroke-width: 1.5;" width="109" x="841.5" y="278.5"/><ellipse cx="856.5" cy="294.5" fill="#ADD1B2" rx="11" ry="11" style="stroke: #A80036; stroke-width: 1.0;"/><path d="M856.1875,290.8281 Q854.7031,290.8281 853.9219,291.9375 Q853.1406,293.0469 853.1406,294.9688 Q853.1406,296.9063 853.8594,297.9688 Q854.5781,299.0313 856.1875,299.0313 Q856.9063,299.0313 857.6563,298.8594 Q858.4063,298.6875 859.2813,298.375 L859.2813,300.5469 Q858.4688,300.8594 857.6875,301.0156 Q856.9063,301.1719 855.9375,301.1719 Q854.0625,301.1719 852.8516,300.3984 Q851.6406,299.625 851.0625,298.2188 Q850.4844,296.8125 850.4844,294.9531 Q850.4844,293.1094 851.1484,291.7031 Q851.8125,290.2969 853.0781,289.4922 Q854.3438,288.6875 856.1875,288.6875 Q857.0781,288.6875 857.9922,288.9219 Q858.9063,289.1563 859.7344,289.5469 L858.9063,291.6406 Q858.2188,291.3125 857.5313,291.0703 Q856.8438,290.8281 856.1875,290.8281 Z "/><text fill="#000000" font-family="sans-serif" font-size="12" lengthAdjust="spacingAndGlyphs" textLength="77" x="870.5" y="299.156">SleepingState</text><line style="stroke: #A80036; stroke-width: 1.5;" x1="842.5" x2="949.5" y1="310.5" y2="310.5"/><line style="stroke: #A80036; stroke-width: 1.5;" x1="842.5" x2="949.5" y1="318.5" y2="318.5"/><!--class DeathState--><rect fill="#FEFECE" filter="url(#fofs3wx5p84sv)" height="48" id="DeathState" style="stroke: #A80036; stroke-width: 1.5;" width="95" x="848.5" y="361.5"/><ellipse cx="863.5" cy="377.5" fill="#ADD1B2" rx="11" ry="11" style="stroke: #A80036; stroke-width: 1.0;"/><path d="M863.1875,373.8281 Q861.7031,373.8281 860.9219,374.9375 Q860.1406,376.0469 860.1406,377.9688 Q860.1406,379.9063 860.8594,380.9688 Q861.5781,382.0313 863.1875,382.0313 Q863.9063,382.0313 864.6563,381.8594 Q865.4063,381.6875 866.2813,381.375 L866.2813,383.5469 Q865.4688,383.8594 864.6875,384.0156 Q863.9063,384.1719 862.9375,384.1719 Q861.0625,384.1719 859.8516,383.3984 Q858.6406,382.625 858.0625,381.2188 Q857.4844,379.8125 857.4844,377.9531 Q857.4844,376.1094 858.1484,374.7031 Q858.8125,373.2969 860.0781,372.4922 Q861.3438,371.6875 863.1875,371.6875 Q864.0781,371.6875 864.9922,371.9219 Q865.9063,372.1563 866.7344,372.5469 L865.9063,374.6406 Q865.2188,374.3125 864.5313,374.0703 Q863.8438,373.8281 863.1875,373.8281 Z "/><text fill="#000000" font-family="sans-serif" font-size="12" lengthAdjust="spacingAndGlyphs" textLength="63" x="877.5" y="382.156">DeathState</text><line style="stroke: #A80036; stroke-width: 1.5;" x1="849.5" x2="942.5" y1="393.5" y2="393.5"/><line style="stroke: #A80036; stroke-width: 1.5;" x1="849.5" x2="942.5" y1="401.5" y2="401.5"/><!--link State to DigestingState--><path d="M781.6183,135.4166 C799.7695,116.3766 819.5676,96.7132 839,79.5 C845.901,73.3871 853.6508,67.2511 861.1597,61.6302 " fill="none" id="State-DigestingState" style="stroke: #A80036; stroke-width: 1.0;"/><polygon fill="none" points="786.5716,140.3675,767.7739,150.1475,776.3699,130.7797,786.5716,140.3675" style="stroke: #A80036; stroke-width: 1.0;"/><!--link State to HungryState--><path d="M796.4155,176.4481 C813.0578,168.4351 829.911,160.3206 844.9025,153.1025 " fill="none" id="State-HungryState" style="stroke: #A80036; stroke-width: 1.0;"/><polygon fill="none" points="799.2403,182.8571,778.1835,185.2265,793.1668,170.2431,799.2403,182.8571" style="stroke: #A80036; stroke-width: 1.0;"/><!--link State to PlayfulState--><path d="M798.4037,219.5 C815.1494,219.5 832.0249,219.5 846.9239,219.5 " fill="none" id="State-PlayfulState" style="stroke: #A80036; stroke-width: 1.0;"/><polygon fill="none" points="798.1835,226.4999,778.1835,219.5,798.1834,212.4999,798.1835,226.4999" style="stroke: #A80036; stroke-width: 1.0;"/><!--link State to SleepingState--><path d="M796.6321,258.8622 C811.9143,265.5735 827.3666,272.3594 841.3849,278.5156 " fill="none" id="State-SleepingState" style="stroke: #A80036; stroke-width: 1.0;"/><polygon fill="none" points="793.6809,265.2115,778.1835,250.7605,799.3101,252.3931,793.6809,265.2115" style="stroke: #A80036; stroke-width: 1.0;"/><!--link State to DeathState--><path d="M791.2654,302.4726 C806.8114,316.8587 823.1474,331.3933 839,344.5 C845.8581,350.1702 853.4399,355.9406 860.7749,361.2928 " fill="none" id="State-DeathState" style="stroke: #A80036; stroke-width: 1.0;"/><polygon fill="none" points="786.4553,307.5583,776.6442,288.7769,796.0262,297.3408,786.4553,307.5583" style="stroke: #A80036; stroke-width: 1.0;"/><!--link State to Animal--><path d="M635.9208,244.9941 C625.9848,247.6809 615.816,249.9822 606,251.5 C571.3013,256.8654 561.8337,255.905 527,251.5 C521.5202,250.807 515.9362,249.9489 510.3195,248.9641 " fill="none" id="State-Animal" style="stroke: #A80036; stroke-width: 1.0;"/><polygon fill="#A80036" points="497.1879,246.4544,502.3303,251.5096,508.9746,248.7071,503.8321,243.6519,497.1879,246.4544" style="stroke: #A80036; stroke-width: 1.0;"/><text fill="#000000" font-family="sans-serif" font-size="13" lengthAdjust="spacingAndGlyphs" textLength="77" x="528" y="247.397">current state</text><!--link Animal to State--><path d="M497.1766,219.5 C537.2434,219.5 583.5489,219.5 622.4499,219.5 " fill="none" id="Animal-State" style="stroke: #A80036; stroke-width: 1.0;"/><polygon fill="#A80036" points="635.6083,219.5,629.6083,215.5,623.6083,219.5,629.6083,223.5,635.6083,219.5" style="stroke: #A80036; stroke-width: 1.0;"/><text fill="#000000" font-family="sans-serif" font-size="13" lengthAdjust="spacingAndGlyphs" textLength="40" x="546.5" y="215.397">animal</text><!--link GenusSpecies to Animal--><path d="M163.1068,219.5 C202.7768,219.5 251.5073,219.5 294.6246,219.5 " fill="none" id="GenusSpecies-Animal" style="stroke: #A80036; stroke-width: 1.0;"/><polygon fill="#A80036" points="307.8094,219.5,301.8094,215.5,295.8094,219.5,301.8094,223.5,307.8094,219.5" style="stroke: #A80036; stroke-width: 1.0;"/><text fill="#000000" font-family="sans-serif" font-size="13" lengthAdjust="spacingAndGlyphs" textLength="83" x="194" y="215.397">genus species</text><!--link GenusSpecies to Animal--><path d="M163.19,241.4573 C173.1568,243.5349 183.2701,245.3076 193,246.5 C230.4972,251.0955 240.4374,250.5263 278,246.5 C283.4428,245.9166 288.9969,245.1936 294.5898,244.3636 " fill="none" id="GenusSpecies-Animal" style="stroke: #A80036; stroke-width: 1.0;"/><polygon fill="#A80036" points="307.6766,242.2475,301.1151,239.2565,295.8304,244.1629,302.392,247.1539,307.6766,242.2475" style="stroke: #A80036; stroke-width: 1.0;"/><text fill="#000000" font-family="sans-serif" font-size="13" lengthAdjust="spacingAndGlyphs" textLength="49" x="211" y="242.397">devours</text><text fill="#000000" font-family="sans-serif" font-size="13" lengthAdjust="spacingAndGlyphs" textLength="8" x="171.0714" y="258.2978">n</text><!--
@startuml
left to right direction
enum GenusSpecies {

    LION,
    GAZELLE,
    FLAMINGO

	-readableType: String
    -type: String

    +String getReadableType()
    +String getType()
}

class Animal {
	-sleep: int
    -awake: int
    -digest: int

    -currentState: State

    -name: String
    -genusSpecies: GenusSpecies
    -devours: GenusSpecies[]
    -collectionAmount: int
    
    +void feed()
    +void tick()
    +int collect()
    +boolean devours(Animal other)

    +boolean isAsleep()
    +boolean isPlayful()
    +boolean isHungry()
    +boolean isDigesting()
    +boolean isDead()

    +int getSleep()
    +int getDigest()
    +int getAwake()
    +String getName()
}

abstract class State {
	#{static}logger: Logger
    #animal: Animal
    -t: int
    -duration: int
    State tick()
    abstract State successor()
}

class DigestingState extends State {
}

class HungryState extends State {
    State feed()
}

class PlayfulState extends State {
}

class SleepingState extends State {
}

class DeathState extends State {
}

State - -* Animal : current state
Animal - -* State: animal
GenusSpecies - -* Animal: genus species
GenusSpecies "n" - -* Animal: devours

@enduml

PlantUML version 1.2018.11(Sat Sep 22 18:43:53 CEST 2018)
(GPL source distribution)
Java Runtime: OpenJDK Runtime Environment
JVM: OpenJDK 64-Bit Server VM
Java Version: 1.8.0_181-b13
Operating System: Linux
OS Version: 4.18.14-arch1-1-ARCH
Default Encoding: UTF-8
Language: en
Country: US
--></g></svg>