<?xml version="1.0" encoding="UTF-8" standalone="no"?><svg xmlns="http://www.w3.org/2000/svg" xmlns:xlink="http://www.w3.org/1999/xlink" contentScriptType="application/ecmascript" contentStyleType="text/css" height="550px" preserveAspectRatio="none" style="width:1009px;height:550px;" version="1.1" viewBox="0 0 1009 550" width="1009px" zoomAndPan="magnify"><defs><filter height="300%" id="f11e576xscgkzh" width="300%" x="-1" y="-1"><feGaussianBlur result="blurOut" stdDeviation="2.0"/><feColorMatrix in="blurOut" result="blurOut2" type="matrix" values="0 0 0 0 0 0 0 0 0 0 0 0 0 0 0 0 0 0 .4 0"/><feOffset dx="4.0" dy="4.0" in="blurOut2" result="blurOut3"/><feBlend in="SourceGraphic" in2="blurOut3" mode="normal"/></filter></defs><g><!--class GenusSpecies--><rect fill="#FEFECE" filter="url(#f11e576xscgkzh)" height="137.6328" id="GenusSpecies" style="stroke: #A80036; stroke-width: 1.5;" width="169" x="6" y="8"/><ellipse cx="42.6" cy="24" fill="#EB937F" rx="11" ry="11" style="stroke: #A80036; stroke-width: 1.0;"/><path d="M46.7094,30 L38.9906,30 L38.9906,17.6094 L46.7094,17.6094 L46.7094,19.7656 L41.4438,19.7656 L41.4438,22.4375 L46.2094,22.4375 L46.2094,24.5938 L41.4438,24.5938 L41.4438,27.8438 L46.7094,27.8438 L46.7094,30 Z "/><text fill="#000000" font-family="sans-serif" font-size="12" lengthAdjust="spacingAndGlyphs" textLength="89" x="61.4" y="28.1543">GenusSpecies</text><line style="stroke: #A80036; stroke-width: 1.5;" x1="7" x2="174" y1="40" y2="40"/><text fill="#000000" font-family="sans-serif" font-size="11" lengthAdjust="spacingAndGlyphs" textLength="30" x="26" y="54.2104">LION,</text><text fill="#000000" font-family="sans-serif" font-size="11" lengthAdjust="spacingAndGlyphs" textLength="55" x="26" y="67.0151">GAZELLE,</text><text fill="#000000" font-family="sans-serif" font-size="11" lengthAdjust="spacingAndGlyphs" textLength="57" x="26" y="79.8198">FLAMINGO</text><rect fill="none" height="6" style="stroke: #C82930; stroke-width: 1.0;" width="6" x="14" y="87.3164"/><text fill="#000000" font-family="sans-serif" font-size="11" lengthAdjust="spacingAndGlyphs" textLength="119" x="26" y="92.6245">readableType: String</text><rect fill="none" height="6" style="stroke: #C82930; stroke-width: 1.0;" width="6" x="14" y="100.1211"/><text fill="#000000" font-family="sans-serif" font-size="11" lengthAdjust="spacingAndGlyphs" textLength="66" x="26" y="105.4292">type: String</text><line style="stroke: #A80036; stroke-width: 1.5;" x1="7" x2="174" y1="112.0234" y2="112.0234"/><ellipse cx="17" cy="123.9258" fill="#84BE84" rx="3" ry="3" style="stroke: #038048; stroke-width: 1.0;"/><text fill="#000000" font-family="sans-serif" font-size="11" lengthAdjust="spacingAndGlyphs" textLength="143" x="26" y="126.2339">String getReadableType()</text><ellipse cx="17" cy="136.7305" fill="#84BE84" rx="3" ry="3" style="stroke: #038048; stroke-width: 1.0;"/><text fill="#000000" font-family="sans-serif" font-size="11" lengthAdjust="spacingAndGlyphs" textLength="91" x="26" y="139.0386">String getType()</text><!--class Animal--><rect fill="#FEFECE" filter="url(#f11e576xscgkzh)" height="316.8984" id="Animal" style="stroke: #A80036; stroke-width: 1.5;" width="201" x="56" y="223"/><ellipse cx="131.75" cy="239" fill="#ADD1B2" rx="11" ry="11" style="stroke: #A80036; stroke-width: 1.0;"/><path d="M134.7188,244.6406 Q134.1406,244.9375 133.5,245.0859 Q132.8594,245.2344 132.1563,245.2344 Q129.6563,245.2344 128.3359,243.5859 Q127.0156,241.9375 127.0156,238.8125 Q127.0156,235.6875 128.3359,234.0313 Q129.6563,232.375 132.1563,232.375 Q132.8594,232.375 133.5078,232.5313 Q134.1563,232.6875 134.7188,232.9844 L134.7188,235.7031 Q134.0938,235.125 133.5,234.8516 Q132.9063,234.5781 132.2813,234.5781 Q130.9375,234.5781 130.25,235.6484 Q129.5625,236.7188 129.5625,238.8125 Q129.5625,240.9063 130.25,241.9766 Q130.9375,243.0469 132.2813,243.0469 Q132.9063,243.0469 133.5,242.7734 Q134.0938,242.5 134.7188,241.9219 L134.7188,244.6406 Z "/><text fill="#000000" font-family="sans-serif" font-size="12" lengthAdjust="spacingAndGlyphs" textLength="41" x="152.25" y="243.1543">Animal</text><line style="stroke: #A80036; stroke-width: 1.5;" x1="57" x2="256" y1="255" y2="255"/><rect fill="none" height="6" style="stroke: #C82930; stroke-width: 1.0;" width="6" x="64" y="263.9023"/><text fill="#000000" font-family="sans-serif" font-size="11" lengthAdjust="spacingAndGlyphs" textLength="53" x="76" y="269.2104">sleep: int</text><rect fill="none" height="6" style="stroke: #C82930; stroke-width: 1.0;" width="6" x="64" y="276.707"/><text fill="#000000" font-family="sans-serif" font-size="11" lengthAdjust="spacingAndGlyphs" textLength="58" x="76" y="282.0151">awake: int</text><rect fill="none" height="6" style="stroke: #C82930; stroke-width: 1.0;" width="6" x="64" y="289.5117"/><text fill="#000000" font-family="sans-serif" font-size="11" lengthAdjust="spacingAndGlyphs" textLength="57" x="76" y="294.8198">digest: int</text><rect fill="none" height="6" style="stroke: #C82930; stroke-width: 1.0;" width="6" x="64" y="302.3164"/><text fill="#000000" font-family="sans-serif" font-size="11" lengthAdjust="spacingAndGlyphs" textLength="109" x="76" y="307.6245">currentState: State</text><rect fill="none" height="6" style="stroke: #C82930; stroke-width: 1.0;" width="6" x="64" y="315.1211"/><text fill="#000000" font-family="sans-serif" font-size="11" lengthAdjust="spacingAndGlyphs" textLength="74" x="76" y="320.4292">name: String</text><rect fill="none" height="6" style="stroke: #C82930; stroke-width: 1.0;" width="6" x="64" y="327.9258"/><text fill="#000000" font-family="sans-serif" font-size="11" lengthAdjust="spacingAndGlyphs" textLength="170" x="76" y="333.2339">genusSpecies: GenusSpecies</text><rect fill="none" height="6" style="stroke: #C82930; stroke-width: 1.0;" width="6" x="64" y="340.7305"/><text fill="#000000" font-family="sans-serif" font-size="11" lengthAdjust="spacingAndGlyphs" textLength="144" x="76" y="346.0386">devours: GenusSpecies[]</text><rect fill="none" height="6" style="stroke: #C82930; stroke-width: 1.0;" width="6" x="64" y="353.5352"/><text fill="#000000" font-family="sans-serif" font-size="11" lengthAdjust="spacingAndGlyphs" textLength="118" x="76" y="358.8433">collectionAmount: int</text><line style="stroke: #A80036; stroke-width: 1.5;" x1="57" x2="256" y1="365.4375" y2="365.4375"/><ellipse cx="67" cy="377.3398" fill="#84BE84" rx="3" ry="3" style="stroke: #038048; stroke-width: 1.0;"/><text fill="#000000" font-family="sans-serif" font-size="11" lengthAdjust="spacingAndGlyphs" textLength="60" x="76" y="379.6479">void feed()</text><ellipse cx="67" cy="390.1445" fill="#84BE84" rx="3" ry="3" style="stroke: #038048; stroke-width: 1.0;"/><text fill="#000000" font-family="sans-serif" font-size="11" lengthAdjust="spacingAndGlyphs" textLength="54" x="76" y="392.4526">void tick()</text><ellipse cx="67" cy="402.9492" fill="#84BE84" rx="3" ry="3" style="stroke: #038048; stroke-width: 1.0;"/><text fill="#000000" font-family="sans-serif" font-size="11" lengthAdjust="spacingAndGlyphs" textLength="62" x="76" y="405.2573">int collect()</text><ellipse cx="67" cy="415.7539" fill="#84BE84" rx="3" ry="3" style="stroke: #038048; stroke-width: 1.0;"/><text fill="#000000" font-family="sans-serif" font-size="11" lengthAdjust="spacingAndGlyphs" textLength="175" x="76" y="418.062">boolean devours(Animal other)</text><ellipse cx="67" cy="428.5586" fill="#84BE84" rx="3" ry="3" style="stroke: #038048; stroke-width: 1.0;"/><text fill="#000000" font-family="sans-serif" font-size="11" lengthAdjust="spacingAndGlyphs" textLength="105" x="76" y="430.8667">boolean isAsleep()</text><ellipse cx="67" cy="441.3633" fill="#84BE84" rx="3" ry="3" style="stroke: #038048; stroke-width: 1.0;"/><text fill="#000000" font-family="sans-serif" font-size="11" lengthAdjust="spacingAndGlyphs" textLength="104" x="76" y="443.6714">boolean isPlayful()</text><ellipse cx="67" cy="454.168" fill="#84BE84" rx="3" ry="3" style="stroke: #038048; stroke-width: 1.0;"/><text fill="#000000" font-family="sans-serif" font-size="11" lengthAdjust="spacingAndGlyphs" textLength="107" x="76" y="456.4761">boolean isHungry()</text><ellipse cx="67" cy="466.9727" fill="#84BE84" rx="3" ry="3" style="stroke: #038048; stroke-width: 1.0;"/><text fill="#000000" font-family="sans-serif" font-size="11" lengthAdjust="spacingAndGlyphs" textLength="120" x="76" y="469.2808">boolean isDigesting()</text><ellipse cx="67" cy="479.7773" fill="#84BE84" rx="3" ry="3" style="stroke: #038048; stroke-width: 1.0;"/><text fill="#000000" font-family="sans-serif" font-size="11" lengthAdjust="spacingAndGlyphs" textLength="96" x="76" y="482.0854">boolean isDead()</text><ellipse cx="67" cy="492.582" fill="#84BE84" rx="3" ry="3" style="stroke: #038048; stroke-width: 1.0;"/><text fill="#000000" font-family="sans-serif" font-size="11" lengthAdjust="spacingAndGlyphs" textLength="76" x="76" y="494.8901">int getSleep()</text><ellipse cx="67" cy="505.3867" fill="#84BE84" rx="3" ry="3" style="stroke: #038048; stroke-width: 1.0;"/><text fill="#000000" font-family="sans-serif" font-size="11" lengthAdjust="spacingAndGlyphs" textLength="80" x="76" y="507.6948">int getDigest()</text><ellipse cx="67" cy="518.1914" fill="#84BE84" rx="3" ry="3" style="stroke: #038048; stroke-width: 1.0;"/><text fill="#000000" font-family="sans-serif" font-size="11" lengthAdjust="spacingAndGlyphs" textLength="80" x="76" y="520.4995">int getAwake()</text><ellipse cx="67" cy="530.9961" fill="#84BE84" rx="3" ry="3" style="stroke: #038048; stroke-width: 1.0;"/><text fill="#000000" font-family="sans-serif" font-size="11" lengthAdjust="spacingAndGlyphs" textLength="97" x="76" y="533.3042">String getName()</text><!--class State--><rect fill="#FEFECE" filter="url(#f11e576xscgkzh)" height="124.8281" id="State" style="stroke: #A80036; stroke-width: 1.5;" width="164" x="497.5" y="14.5"/><ellipse cx="558.25" cy="30.5" fill="#A9DCDF" rx="11" ry="11" style="stroke: #A80036; stroke-width: 1.0;"/><path d="M558.3594,25.8438 L557.2031,30.9219 L559.5313,30.9219 L558.3594,25.8438 Z M556.875,23.6094 L559.8594,23.6094 L563.2188,36 L560.7656,36 L560,32.9375 L556.7188,32.9375 L555.9688,36 L553.5313,36 L556.875,23.6094 Z "/><text fill="#000000" font-family="sans-serif" font-size="12" font-style="italic" lengthAdjust="spacingAndGlyphs" textLength="34" x="578.75" y="34.6543">State</text><line style="stroke: #A80036; stroke-width: 1.5;" x1="498.5" x2="660.5" y1="46.5" y2="46.5"/><polygon fill="none" points="508.5,53.4023,512.5,57.4023,508.5,61.4023,504.5,57.4023" style="stroke: #B38D22; stroke-width: 1.0;"/><text fill="#000000" font-family="sans-serif" font-size="11" lengthAdjust="spacingAndGlyphs" text-decoration="underline" textLength="83" x="517.5" y="60.7104">logger: Logger</text><line style="stroke: #000000; stroke-width: 1.0;" x1="517.5" x2="600.5" y1="62.7104" y2="62.7104"/><polygon fill="none" points="508.5,66.207,512.5,70.207,508.5,74.207,504.5,70.207" style="stroke: #B38D22; stroke-width: 1.0;"/><text fill="#000000" font-family="sans-serif" font-size="11" lengthAdjust="spacingAndGlyphs" textLength="84" x="517.5" y="73.5151">animal: Animal</text><rect fill="none" height="6" style="stroke: #C82930; stroke-width: 1.0;" width="6" x="505.5" y="81.0117"/><text fill="#000000" font-family="sans-serif" font-size="11" lengthAdjust="spacingAndGlyphs" textLength="26" x="517.5" y="86.3198">t: int</text><rect fill="none" height="6" style="stroke: #C82930; stroke-width: 1.0;" width="6" x="505.5" y="93.8164"/><text fill="#000000" font-family="sans-serif" font-size="11" lengthAdjust="spacingAndGlyphs" textLength="69" x="517.5" y="99.1245">duration: int</text><line style="stroke: #A80036; stroke-width: 1.5;" x1="498.5" x2="660.5" y1="105.7188" y2="105.7188"/><text fill="#000000" font-family="sans-serif" font-size="11" lengthAdjust="spacingAndGlyphs" textLength="61" x="503.5" y="119.9292">State tick()</text><text fill="#000000" font-family="sans-serif" font-size="11" lengthAdjust="spacingAndGlyphs" textLength="152" x="503.5" y="132.7339">abstract State successor()</text><!--class DigestingState--><rect fill="#FEFECE" filter="url(#f11e576xscgkzh)" height="48" id="DigestingState" style="stroke: #A80036; stroke-width: 1.5;" width="125" x="293" y="357.5"/><ellipse cx="308" cy="373.5" fill="#ADD1B2" rx="11" ry="11" style="stroke: #A80036; stroke-width: 1.0;"/><path d="M310.9688,379.1406 Q310.3906,379.4375 309.75,379.5859 Q309.1094,379.7344 308.4063,379.7344 Q305.9063,379.7344 304.5859,378.0859 Q303.2656,376.4375 303.2656,373.3125 Q303.2656,370.1875 304.5859,368.5313 Q305.9063,366.875 308.4063,366.875 Q309.1094,366.875 309.7578,367.0313 Q310.4063,367.1875 310.9688,367.4844 L310.9688,370.2031 Q310.3438,369.625 309.75,369.3516 Q309.1563,369.0781 308.5313,369.0781 Q307.1875,369.0781 306.5,370.1484 Q305.8125,371.2188 305.8125,373.3125 Q305.8125,375.4063 306.5,376.4766 Q307.1875,377.5469 308.5313,377.5469 Q309.1563,377.5469 309.75,377.2734 Q310.3438,377 310.9688,376.4219 L310.9688,379.1406 Z "/><text fill="#000000" font-family="sans-serif" font-size="12" lengthAdjust="spacingAndGlyphs" textLength="93" x="322" y="377.6543">DigestingState</text><line style="stroke: #A80036; stroke-width: 1.5;" x1="294" x2="417" y1="389.5" y2="389.5"/><line style="stroke: #A80036; stroke-width: 1.5;" x1="294" x2="417" y1="397.5" y2="397.5"/><!--class HungryState--><rect fill="#FEFECE" filter="url(#f11e576xscgkzh)" height="60.8047" id="HungryState" style="stroke: #A80036; stroke-width: 1.5;" width="110" x="453.5" y="351"/><ellipse cx="468.5" cy="367" fill="#ADD1B2" rx="11" ry="11" style="stroke: #A80036; stroke-width: 1.0;"/><path d="M471.4688,372.6406 Q470.8906,372.9375 470.25,373.0859 Q469.6094,373.2344 468.9063,373.2344 Q466.4063,373.2344 465.0859,371.5859 Q463.7656,369.9375 463.7656,366.8125 Q463.7656,363.6875 465.0859,362.0313 Q466.4063,360.375 468.9063,360.375 Q469.6094,360.375 470.2578,360.5313 Q470.9063,360.6875 471.4688,360.9844 L471.4688,363.7031 Q470.8438,363.125 470.25,362.8516 Q469.6563,362.5781 469.0313,362.5781 Q467.6875,362.5781 467,363.6484 Q466.3125,364.7188 466.3125,366.8125 Q466.3125,368.9063 467,369.9766 Q467.6875,371.0469 469.0313,371.0469 Q469.6563,371.0469 470.25,370.7734 Q470.8438,370.5 471.4688,369.9219 L471.4688,372.6406 Z "/><text fill="#000000" font-family="sans-serif" font-size="12" lengthAdjust="spacingAndGlyphs" textLength="78" x="482.5" y="371.1543">HungryState</text><line style="stroke: #A80036; stroke-width: 1.5;" x1="454.5" x2="562.5" y1="383" y2="383"/><line style="stroke: #A80036; stroke-width: 1.5;" x1="454.5" x2="562.5" y1="391" y2="391"/><text fill="#000000" font-family="sans-serif" font-size="11" lengthAdjust="spacingAndGlyphs" textLength="67" x="459.5" y="405.2104">State feed()</text><!--class PlayfulState--><rect fill="#FEFECE" filter="url(#f11e576xscgkzh)" height="48" id="PlayfulState" style="stroke: #A80036; stroke-width: 1.5;" width="106" x="598.5" y="357.5"/><ellipse cx="613.5" cy="373.5" fill="#ADD1B2" rx="11" ry="11" style="stroke: #A80036; stroke-width: 1.0;"/><path d="M616.4688,379.1406 Q615.8906,379.4375 615.25,379.5859 Q614.6094,379.7344 613.9063,379.7344 Q611.4063,379.7344 610.0859,378.0859 Q608.7656,376.4375 608.7656,373.3125 Q608.7656,370.1875 610.0859,368.5313 Q611.4063,366.875 613.9063,366.875 Q614.6094,366.875 615.2578,367.0313 Q615.9063,367.1875 616.4688,367.4844 L616.4688,370.2031 Q615.8438,369.625 615.25,369.3516 Q614.6563,369.0781 614.0313,369.0781 Q612.6875,369.0781 612,370.1484 Q611.3125,371.2188 611.3125,373.3125 Q611.3125,375.4063 612,376.4766 Q612.6875,377.5469 614.0313,377.5469 Q614.6563,377.5469 615.25,377.2734 Q615.8438,377 616.4688,376.4219 L616.4688,379.1406 Z "/><text fill="#000000" font-family="sans-serif" font-size="12" lengthAdjust="spacingAndGlyphs" textLength="74" x="627.5" y="377.6543">PlayfulState</text><line style="stroke: #A80036; stroke-width: 1.5;" x1="599.5" x2="703.5" y1="389.5" y2="389.5"/><line style="stroke: #A80036; stroke-width: 1.5;" x1="599.5" x2="703.5" y1="397.5" y2="397.5"/><!--class SleepingState--><rect fill="#FEFECE" filter="url(#f11e576xscgkzh)" height="48" id="SleepingState" style="stroke: #A80036; stroke-width: 1.5;" width="120" x="739.5" y="357.5"/><ellipse cx="754.5" cy="373.5" fill="#ADD1B2" rx="11" ry="11" style="stroke: #A80036; stroke-width: 1.0;"/><path d="M757.4688,379.1406 Q756.8906,379.4375 756.25,379.5859 Q755.6094,379.7344 754.9063,379.7344 Q752.4063,379.7344 751.0859,378.0859 Q749.7656,376.4375 749.7656,373.3125 Q749.7656,370.1875 751.0859,368.5313 Q752.4063,366.875 754.9063,366.875 Q755.6094,366.875 756.2578,367.0313 Q756.9063,367.1875 757.4688,367.4844 L757.4688,370.2031 Q756.8438,369.625 756.25,369.3516 Q755.6563,369.0781 755.0313,369.0781 Q753.6875,369.0781 753,370.1484 Q752.3125,371.2188 752.3125,373.3125 Q752.3125,375.4063 753,376.4766 Q753.6875,377.5469 755.0313,377.5469 Q755.6563,377.5469 756.25,377.2734 Q756.8438,377 757.4688,376.4219 L757.4688,379.1406 Z "/><text fill="#000000" font-family="sans-serif" font-size="12" lengthAdjust="spacingAndGlyphs" textLength="88" x="768.5" y="377.6543">SleepingState</text><line style="stroke: #A80036; stroke-width: 1.5;" x1="740.5" x2="858.5" y1="389.5" y2="389.5"/><line style="stroke: #A80036; stroke-width: 1.5;" x1="740.5" x2="858.5" y1="397.5" y2="397.5"/><!--class DeathState--><rect fill="#FEFECE" filter="url(#f11e576xscgkzh)" height="48" id="DeathState" style="stroke: #A80036; stroke-width: 1.5;" width="104" x="894.5" y="357.5"/><ellipse cx="909.5" cy="373.5" fill="#ADD1B2" rx="11" ry="11" style="stroke: #A80036; stroke-width: 1.0;"/><path d="M912.4688,379.1406 Q911.8906,379.4375 911.25,379.5859 Q910.6094,379.7344 909.9063,379.7344 Q907.4063,379.7344 906.0859,378.0859 Q904.7656,376.4375 904.7656,373.3125 Q904.7656,370.1875 906.0859,368.5313 Q907.4063,366.875 909.9063,366.875 Q910.6094,366.875 911.2578,367.0313 Q911.9063,367.1875 912.4688,367.4844 L912.4688,370.2031 Q911.8438,369.625 911.25,369.3516 Q910.6563,369.0781 910.0313,369.0781 Q908.6875,369.0781 908,370.1484 Q907.3125,371.2188 907.3125,373.3125 Q907.3125,375.4063 908,376.4766 Q908.6875,377.5469 910.0313,377.5469 Q910.6563,377.5469 911.25,377.2734 Q911.8438,377 912.4688,376.4219 L912.4688,379.1406 Z "/><text fill="#000000" font-family="sans-serif" font-size="12" lengthAdjust="spacingAndGlyphs" textLength="72" x="923.5" y="377.6543">DeathState</text><line style="stroke: #A80036; stroke-width: 1.5;" x1="895.5" x2="997.5" y1="389.5" y2="389.5"/><line style="stroke: #A80036; stroke-width: 1.5;" x1="895.5" x2="997.5" y1="397.5" y2="397.5"/><!--link State to Animal--><path d="M484.7453,108.2788 C420.8867,132.5891 337.3419,170.9591 275.5,223 C269.3129,228.2065 263.259,233.7928 257.3658,239.6452 " fill="none" id="State-Animal" style="stroke: #A80036; stroke-width: 1.0;"/><polygon fill="#A80036" points="497.2423,103.6044,490.2212,101.96,486.0029,107.8086,493.024,109.453,497.2423,103.6044" style="stroke: #A80036; stroke-width: 1.0;"/><text fill="#000000" font-family="sans-serif" font-size="13" lengthAdjust="spacingAndGlyphs" textLength="83" x="336.5" y="189.0669">current state</text><!--link GenusSpecies to Animal--><path d="M20.7462,158.6825 C17.385,169.8507 16.7696,181.4538 20.5,193 C28.5952,218.0558 41.399,242.585 55.9852,265.2282 " fill="none" id="GenusSpecies-Animal" style="stroke: #A80036; stroke-width: 1.0;"/><polygon fill="#A80036" points="25.6225,146.2841,19.7039,150.4036,21.2302,157.4514,27.1488,153.3318,25.6225,146.2841" style="stroke: #A80036; stroke-width: 1.0;"/><text fill="#000000" font-family="sans-serif" font-size="13" lengthAdjust="spacingAndGlyphs" textLength="91" x="21.5" y="189.0669">genus species</text><!--link GenusSpecies to Animal--><path d="M113.3435,158.7855 C114.8014,164.5984 116.2025,170.3802 117.5,176 C120.9923,191.1263 124.4058,206.9313 127.6694,222.7665 " fill="none" id="GenusSpecies-Animal" style="stroke: #A80036; stroke-width: 1.0;"/><polygon fill="#A80036" points="110.0798,146.0613,107.696,152.867,113.0614,157.685,115.4451,150.8793,110.0798,146.0613" style="stroke: #A80036; stroke-width: 1.0;"/><text fill="#000000" font-family="sans-serif" font-size="13" lengthAdjust="spacingAndGlyphs" textLength="51" x="122.5" y="189.0669">devours</text><text fill="#000000" font-family="sans-serif" font-size="13" lengthAdjust="spacingAndGlyphs" textLength="8" x="103.6134" y="165.6893">n</text><!--link State to DigestingState--><path d="M494.9268,153.8157 C474.0822,175.056 452.7989,198.92 435.5,223 C403.9381,266.934 378.0526,325.1213 364.8939,357.3715 " fill="none" id="State-DigestingState" style="stroke: #A80036; stroke-width: 1.0;"/><polygon fill="none" points="490.1252,148.7184,509.2333,139.5597,500.0072,158.6354,490.1252,148.7184" style="stroke: #A80036; stroke-width: 1.0;"/><!--link State to HungryState--><path d="M560.271,159.4682 C545.5188,222.7363 525.9831,306.5197 515.6377,350.8883 " fill="none" id="State-HungryState" style="stroke: #A80036; stroke-width: 1.0;"/><polygon fill="none" points="553.5161,157.6113,564.8748,139.7234,567.1503,160.7905,553.5161,157.6113" style="stroke: #A80036; stroke-width: 1.0;"/><!--link State to PlayfulState--><path d="M599.0198,159.5526 C614.7394,226.0333 635.8049,315.1229 645.79,357.3514 " fill="none" id="State-PlayfulState" style="stroke: #A80036; stroke-width: 1.0;"/><polygon fill="none" points="592.1212,160.7975,594.3311,139.7234,605.7455,157.5759,592.1212,160.7975" style="stroke: #A80036; stroke-width: 1.0;"/><!--link State to SleepingState--><path d="M663.0117,153.8407 C683.5655,175.0807 704.5243,198.9384 721.5,223 C752.5284,266.9801 777.672,325.1503 790.4168,357.3852 " fill="none" id="State-SleepingState" style="stroke: #A80036; stroke-width: 1.0;"/><polygon fill="none" points="657.995,158.7229,648.9008,139.584,667.9452,148.8744,657.995,158.7229" style="stroke: #A80036; stroke-width: 1.0;"/><!--link State to DeathState--><path d="M680.7461,106.8448 C743.8979,129.86 823.0471,167.3087 876.5,223 C913.6819,261.7389 933.045,323.5146 941.3612,357.3675 " fill="none" id="State-DeathState" style="stroke: #A80036; stroke-width: 1.0;"/><polygon fill="none" points="678.2595,113.3908,661.707,100.1614,682.8967,100.181,678.2595,113.3908" style="stroke: #A80036; stroke-width: 1.0;"/><!--
@startuml
enum GenusSpecies {

    LION,
    GAZELLE,
    FLAMINGO

	-readableType: String
    -type: String

    +String getReadableType()
    +String getType()
}

class Animal {
	-sleep: int
    -awake: int
    -digest: int

    -currentState: State

    -name: String
    -genusSpecies: GenusSpecies
    -devours: GenusSpecies[]
    -collectionAmount: int
    
    +void feed()
    +void tick()
    +int collect()
    +boolean devours(Animal other)

    +boolean isAsleep()
    +boolean isPlayful()
    +boolean isHungry()
    +boolean isDigesting()
    +boolean isDead()

    +int getSleep()
    +int getDigest()
    +int getAwake()
    +String getName()
}

abstract class State {
	#{static}logger: Logger
    #animal: Animal
    -t: int
    -duration: int
    State tick()
    abstract State successor()
}

class DigestingState {
}

class HungryState {
    State feed()
}

class PlayfulState {
}

class SleepingState {
}

class DeathState {
}

State *- - Animal : current state
GenusSpecies *- - Animal: genus species
GenusSpecies "n" *- - Animal: devours

State <|- - DigestingState
State <|- - HungryState
State <|- - PlayfulState
State <|- - SleepingState
State <|- - DeathState
@enduml

PlantUML version 1.2017.18(Fri Oct 06 18:56:32 CEST 2017)
(GPL source distribution)
Java Runtime: OpenJDK Runtime Environment
JVM: OpenJDK 64-Bit Server VM
Java Version: 1.8.0_144-b01
Operating System: Linux
OS Version: 4.13.5-1-ARCH
Default Encoding: UTF-8
Language: en
Country: US
--></g></svg>