<?xml version="1.0" encoding="UTF-8" standalone="no"?><svg xmlns="http://www.w3.org/2000/svg" xmlns:xlink="http://www.w3.org/1999/xlink" contentScriptType="application/ecmascript" contentStyleType="text/css" height="555px" preserveAspectRatio="none" style="width:951px;height:555px;" version="1.1" viewBox="0 0 951 555" width="951px" zoomAndPan="magnify"><defs><filter height="300%" id="f1q8rwqiw7u49t" width="300%" x="-1" y="-1"><feGaussianBlur result="blurOut" stdDeviation="2.0"/><feColorMatrix in="blurOut" result="blurOut2" type="matrix" values="0 0 0 0 0 0 0 0 0 0 0 0 0 0 0 0 0 0 .4 0"/><feOffset dx="4.0" dy="4.0" in="blurOut2" result="blurOut3"/><feBlend in="SourceGraphic" in2="blurOut3" mode="normal"/></filter></defs><g><!--class GenusSpecies--><rect fill="#FEFECE" filter="url(#f1q8rwqiw7u49t)" height="138.6855" id="GenusSpecies" style="stroke: #A80036; stroke-width: 1.5;" width="160" x="6" y="8"/><ellipse cx="43.05" cy="24" fill="#EB937F" rx="11" ry="11" style="stroke: #A80036; stroke-width: 1.0;"/><path d="M47.1643,30 L39.4445,30 L39.4445,17.6069 L47.1643,17.6069 L47.1643,19.7651 L41.8933,19.7651 L41.8933,22.438 L46.6662,22.438 L46.6662,24.5962 L41.8933,24.5962 L41.8933,27.8418 L47.1643,27.8418 Z "/><text fill="#000000" font-family="sans-serif" font-size="12" lengthAdjust="spacingAndGlyphs" textLength="79" x="61.95" y="28.5352">GenusSpecies</text><line style="stroke: #A80036; stroke-width: 1.5;" x1="7" x2="165" y1="40" y2="40"/><text fill="#000000" font-family="sans-serif" font-size="11" lengthAdjust="spacingAndGlyphs" textLength="29" x="26" y="54.6348">LION,</text><text fill="#000000" font-family="sans-serif" font-size="11" lengthAdjust="spacingAndGlyphs" textLength="50" x="26" y="67.5898">GAZELLE,</text><text fill="#000000" font-family="sans-serif" font-size="11" lengthAdjust="spacingAndGlyphs" textLength="57" x="26" y="80.5449">FLAMINGO</text><rect fill="none" height="6" style="stroke: #C82930; stroke-width: 1.0;" width="6" x="14" y="87.8428"/><text fill="#000000" font-family="sans-serif" font-size="11" lengthAdjust="spacingAndGlyphs" textLength="110" x="26" y="93.5">readableType: String</text><rect fill="none" height="6" style="stroke: #C82930; stroke-width: 1.0;" width="6" x="14" y="100.7979"/><text fill="#000000" font-family="sans-serif" font-size="11" lengthAdjust="spacingAndGlyphs" textLength="61" x="26" y="106.4551">type: String</text><line style="stroke: #A80036; stroke-width: 1.5;" x1="7" x2="165" y1="112.7754" y2="112.7754"/><ellipse cx="17" cy="124.7529" fill="#84BE84" rx="3" ry="3" style="stroke: #038048; stroke-width: 1.0;"/><text fill="#000000" font-family="sans-serif" font-size="11" lengthAdjust="spacingAndGlyphs" textLength="134" x="26" y="127.4102">String getReadableType()</text><ellipse cx="17" cy="137.708" fill="#84BE84" rx="3" ry="3" style="stroke: #038048; stroke-width: 1.0;"/><text fill="#000000" font-family="sans-serif" font-size="11" lengthAdjust="spacingAndGlyphs" textLength="86" x="26" y="140.3652">String getType()</text><!--class Animal--><rect fill="#FEFECE" filter="url(#f1q8rwqiw7u49t)" height="320.0566" id="Animal" style="stroke: #A80036; stroke-width: 1.5;" width="193" x="54.5" y="224"/><ellipse cx="127.25" cy="240" fill="#ADD1B2" rx="11" ry="11" style="stroke: #A80036; stroke-width: 1.0;"/><path d="M130.2231,245.6431 Q129.6421,245.9419 129.0029,246.0913 Q128.3638,246.2407 127.6582,246.2407 Q125.1514,246.2407 123.8315,244.5889 Q122.5117,242.937 122.5117,239.8159 Q122.5117,236.6865 123.8315,235.0347 Q125.1514,233.3828 127.6582,233.3828 Q128.3638,233.3828 129.0112,233.5322 Q129.6587,233.6816 130.2231,233.9805 L130.2231,236.7031 Q129.5923,236.1221 128.9988,235.8523 Q128.4053,235.5825 127.7744,235.5825 Q126.4297,235.5825 125.7449,236.6492 Q125.0601,237.7158 125.0601,239.8159 Q125.0601,241.9077 125.7449,242.9744 Q126.4297,244.041 127.7744,244.041 Q128.4053,244.041 128.9988,243.7712 Q129.5923,243.5015 130.2231,242.9204 Z "/><text fill="#000000" font-family="sans-serif" font-size="12" lengthAdjust="spacingAndGlyphs" textLength="39" x="147.75" y="244.5352">Animal</text><line style="stroke: #A80036; stroke-width: 1.5;" x1="55.5" x2="246.5" y1="256" y2="256"/><rect fill="none" height="6" style="stroke: #C82930; stroke-width: 1.0;" width="6" x="62.5" y="264.9775"/><text fill="#000000" font-family="sans-serif" font-size="11" lengthAdjust="spacingAndGlyphs" textLength="48" x="74.5" y="270.6348">sleep: int</text><rect fill="none" height="6" style="stroke: #C82930; stroke-width: 1.0;" width="6" x="62.5" y="277.9326"/><text fill="#000000" font-family="sans-serif" font-size="11" lengthAdjust="spacingAndGlyphs" textLength="52" x="74.5" y="283.5898">awake: int</text><rect fill="none" height="6" style="stroke: #C82930; stroke-width: 1.0;" width="6" x="62.5" y="290.8877"/><text fill="#000000" font-family="sans-serif" font-size="11" lengthAdjust="spacingAndGlyphs" textLength="53" x="74.5" y="296.5449">digest: int</text><rect fill="none" height="6" style="stroke: #C82930; stroke-width: 1.0;" width="6" x="62.5" y="303.8428"/><text fill="#000000" font-family="sans-serif" font-size="11" lengthAdjust="spacingAndGlyphs" textLength="98" x="74.5" y="309.5">currentState: State</text><rect fill="none" height="6" style="stroke: #C82930; stroke-width: 1.0;" width="6" x="62.5" y="316.7979"/><text fill="#000000" font-family="sans-serif" font-size="11" lengthAdjust="spacingAndGlyphs" textLength="67" x="74.5" y="322.4551">name: String</text><rect fill="none" height="6" style="stroke: #C82930; stroke-width: 1.0;" width="6" x="62.5" y="329.7529"/><text fill="#000000" font-family="sans-serif" font-size="11" lengthAdjust="spacingAndGlyphs" textLength="153" x="74.5" y="335.4102">genusSpecies: GenusSpecies</text><rect fill="none" height="6" style="stroke: #C82930; stroke-width: 1.0;" width="6" x="62.5" y="342.708"/><text fill="#000000" font-family="sans-serif" font-size="11" lengthAdjust="spacingAndGlyphs" textLength="132" x="74.5" y="348.3652">devours: GenusSpecies[]</text><rect fill="none" height="6" style="stroke: #C82930; stroke-width: 1.0;" width="6" x="62.5" y="355.6631"/><text fill="#000000" font-family="sans-serif" font-size="11" lengthAdjust="spacingAndGlyphs" textLength="115" x="74.5" y="361.3203">collectionAmount: int</text><line style="stroke: #A80036; stroke-width: 1.5;" x1="55.5" x2="246.5" y1="367.6406" y2="367.6406"/><ellipse cx="65.5" cy="379.6182" fill="#84BE84" rx="3" ry="3" style="stroke: #038048; stroke-width: 1.0;"/><text fill="#000000" font-family="sans-serif" font-size="11" lengthAdjust="spacingAndGlyphs" textLength="57" x="74.5" y="382.2754">void feed()</text><ellipse cx="65.5" cy="392.5732" fill="#84BE84" rx="3" ry="3" style="stroke: #038048; stroke-width: 1.0;"/><text fill="#000000" font-family="sans-serif" font-size="11" lengthAdjust="spacingAndGlyphs" textLength="53" x="74.5" y="395.2305">void tick()</text><ellipse cx="65.5" cy="405.5283" fill="#84BE84" rx="3" ry="3" style="stroke: #038048; stroke-width: 1.0;"/><text fill="#000000" font-family="sans-serif" font-size="11" lengthAdjust="spacingAndGlyphs" textLength="60" x="74.5" y="408.1855">int collect()</text><ellipse cx="65.5" cy="418.4834" fill="#84BE84" rx="3" ry="3" style="stroke: #038048; stroke-width: 1.0;"/><text fill="#000000" font-family="sans-serif" font-size="11" lengthAdjust="spacingAndGlyphs" textLength="167" x="74.5" y="421.1406">boolean devours(Animal other)</text><ellipse cx="65.5" cy="431.4385" fill="#84BE84" rx="3" ry="3" style="stroke: #038048; stroke-width: 1.0;"/><text fill="#000000" font-family="sans-serif" font-size="11" lengthAdjust="spacingAndGlyphs" textLength="99" x="74.5" y="434.0957">boolean isAsleep()</text><ellipse cx="65.5" cy="444.3936" fill="#84BE84" rx="3" ry="3" style="stroke: #038048; stroke-width: 1.0;"/><text fill="#000000" font-family="sans-serif" font-size="11" lengthAdjust="spacingAndGlyphs" textLength="98" x="74.5" y="447.0508">boolean isPlayful()</text><ellipse cx="65.5" cy="457.3486" fill="#84BE84" rx="3" ry="3" style="stroke: #038048; stroke-width: 1.0;"/><text fill="#000000" font-family="sans-serif" font-size="11" lengthAdjust="spacingAndGlyphs" textLength="103" x="74.5" y="460.0059">boolean isHungry()</text><ellipse cx="65.5" cy="470.3037" fill="#84BE84" rx="3" ry="3" style="stroke: #038048; stroke-width: 1.0;"/><text fill="#000000" font-family="sans-serif" font-size="11" lengthAdjust="spacingAndGlyphs" textLength="114" x="74.5" y="472.9609">boolean isDigesting()</text><ellipse cx="65.5" cy="483.2588" fill="#84BE84" rx="3" ry="3" style="stroke: #038048; stroke-width: 1.0;"/><text fill="#000000" font-family="sans-serif" font-size="11" lengthAdjust="spacingAndGlyphs" textLength="90" x="74.5" y="485.916">boolean isDead()</text><ellipse cx="65.5" cy="496.2139" fill="#84BE84" rx="3" ry="3" style="stroke: #038048; stroke-width: 1.0;"/><text fill="#000000" font-family="sans-serif" font-size="11" lengthAdjust="spacingAndGlyphs" textLength="70" x="74.5" y="498.8711">int getSleep()</text><ellipse cx="65.5" cy="509.1689" fill="#84BE84" rx="3" ry="3" style="stroke: #038048; stroke-width: 1.0;"/><text fill="#000000" font-family="sans-serif" font-size="11" lengthAdjust="spacingAndGlyphs" textLength="76" x="74.5" y="511.8262">int getDigest()</text><ellipse cx="65.5" cy="522.124" fill="#84BE84" rx="3" ry="3" style="stroke: #038048; stroke-width: 1.0;"/><text fill="#000000" font-family="sans-serif" font-size="11" lengthAdjust="spacingAndGlyphs" textLength="76" x="74.5" y="524.7813">int getAwake()</text><ellipse cx="65.5" cy="535.0791" fill="#84BE84" rx="3" ry="3" style="stroke: #038048; stroke-width: 1.0;"/><text fill="#000000" font-family="sans-serif" font-size="11" lengthAdjust="spacingAndGlyphs" textLength="90" x="74.5" y="537.7363">String getName()</text><!--class State--><rect fill="#FEFECE" filter="url(#f1q8rwqiw7u49t)" height="125.7305" id="State" style="stroke: #A80036; stroke-width: 1.5;" width="151" x="476.5" y="14.5"/><ellipse cx="533.75" cy="30.5" fill="#A9DCDF" rx="11" ry="11" style="stroke: #A80036; stroke-width: 1.0;"/><path d="M533.8633,25.8481 L532.7095,30.9199 L535.0254,30.9199 Z M532.3691,23.6069 L535.3657,23.6069 L538.7109,36 L536.2622,36 L535.4985,32.937 L532.2197,32.937 L531.4727,36 L529.0239,36 Z "/><text fill="#000000" font-family="sans-serif" font-size="12" font-style="italic" lengthAdjust="spacingAndGlyphs" textLength="28" x="554.25" y="35.0352">State</text><line style="stroke: #A80036; stroke-width: 1.5;" x1="477.5" x2="626.5" y1="46.5" y2="46.5"/><polygon fill="none" points="487.5,53.4775,491.5,57.4775,487.5,61.4775,483.5,57.4775" style="stroke: #B38D22; stroke-width: 1.0;"/><text fill="#000000" font-family="sans-serif" font-size="11" lengthAdjust="spacingAndGlyphs" text-decoration="underline" textLength="79" x="496.5" y="61.1348">logger: Logger</text><line style="stroke: #000000; stroke-width: 1.0;" x1="496.5" x2="575.5" y1="63.1348" y2="63.1348"/><polygon fill="none" points="487.5,66.4326,491.5,70.4326,487.5,74.4326,483.5,70.4326" style="stroke: #B38D22; stroke-width: 1.0;"/><text fill="#000000" font-family="sans-serif" font-size="11" lengthAdjust="spacingAndGlyphs" textLength="78" x="496.5" y="74.0898">animal: Animal</text><rect fill="none" height="6" style="stroke: #C82930; stroke-width: 1.0;" width="6" x="484.5" y="81.3877"/><text fill="#000000" font-family="sans-serif" font-size="11" lengthAdjust="spacingAndGlyphs" textLength="24" x="496.5" y="87.0449">t: int</text><rect fill="none" height="6" style="stroke: #C82930; stroke-width: 1.0;" width="6" x="484.5" y="94.3428"/><text fill="#000000" font-family="sans-serif" font-size="11" lengthAdjust="spacingAndGlyphs" textLength="66" x="496.5" y="100">duration: int</text><line style="stroke: #A80036; stroke-width: 1.5;" x1="477.5" x2="626.5" y1="106.3203" y2="106.3203"/><text fill="#000000" font-family="sans-serif" font-size="11" lengthAdjust="spacingAndGlyphs" textLength="56" x="482.5" y="120.9551">State tick()</text><text fill="#000000" font-family="sans-serif" font-size="11" lengthAdjust="spacingAndGlyphs" textLength="139" x="482.5" y="133.9102">abstract State successor()</text><!--class DigestingState--><rect fill="#FEFECE" filter="url(#f1q8rwqiw7u49t)" height="48" id="DigestingState" style="stroke: #A80036; stroke-width: 1.5;" width="113" x="286.5" y="360"/><ellipse cx="301.5" cy="376" fill="#ADD1B2" rx="11" ry="11" style="stroke: #A80036; stroke-width: 1.0;"/><path d="M304.4731,381.6431 Q303.8921,381.9419 303.2529,382.0913 Q302.6138,382.2407 301.9082,382.2407 Q299.4014,382.2407 298.0815,380.5889 Q296.7617,378.937 296.7617,375.8159 Q296.7617,372.6865 298.0815,371.0347 Q299.4014,369.3828 301.9082,369.3828 Q302.6138,369.3828 303.2612,369.5322 Q303.9087,369.6816 304.4731,369.9805 L304.4731,372.7031 Q303.8423,372.1221 303.2488,371.8523 Q302.6553,371.5825 302.0244,371.5825 Q300.6797,371.5825 299.9949,372.6492 Q299.3101,373.7158 299.3101,375.8159 Q299.3101,377.9077 299.9949,378.9744 Q300.6797,380.041 302.0244,380.041 Q302.6553,380.041 303.2488,379.7712 Q303.8423,379.5015 304.4731,378.9204 Z "/><text fill="#000000" font-family="sans-serif" font-size="12" lengthAdjust="spacingAndGlyphs" textLength="81" x="315.5" y="380.5352">DigestingState</text><line style="stroke: #A80036; stroke-width: 1.5;" x1="287.5" x2="398.5" y1="392" y2="392"/><line style="stroke: #A80036; stroke-width: 1.5;" x1="287.5" x2="398.5" y1="400" y2="400"/><!--class HungryState--><rect fill="#FEFECE" filter="url(#f1q8rwqiw7u49t)" height="60.9551" id="HungryState" style="stroke: #A80036; stroke-width: 1.5;" width="101" x="434.5" y="353.5"/><ellipse cx="449.5" cy="369.5" fill="#ADD1B2" rx="11" ry="11" style="stroke: #A80036; stroke-width: 1.0;"/><path d="M452.4731,375.1431 Q451.8921,375.4419 451.2529,375.5913 Q450.6138,375.7407 449.9082,375.7407 Q447.4014,375.7407 446.0815,374.0889 Q444.7617,372.437 444.7617,369.3159 Q444.7617,366.1865 446.0815,364.5347 Q447.4014,362.8828 449.9082,362.8828 Q450.6138,362.8828 451.2612,363.0322 Q451.9087,363.1816 452.4731,363.4805 L452.4731,366.2031 Q451.8423,365.6221 451.2488,365.3523 Q450.6553,365.0825 450.0244,365.0825 Q448.6797,365.0825 447.9949,366.1492 Q447.3101,367.2158 447.3101,369.3159 Q447.3101,371.4077 447.9949,372.4744 Q448.6797,373.541 450.0244,373.541 Q450.6553,373.541 451.2488,373.2712 Q451.8423,373.0015 452.4731,372.4204 Z "/><text fill="#000000" font-family="sans-serif" font-size="12" lengthAdjust="spacingAndGlyphs" textLength="69" x="463.5" y="374.0352">HungryState</text><line style="stroke: #A80036; stroke-width: 1.5;" x1="435.5" x2="534.5" y1="385.5" y2="385.5"/><line style="stroke: #A80036; stroke-width: 1.5;" x1="435.5" x2="534.5" y1="393.5" y2="393.5"/><text fill="#000000" font-family="sans-serif" font-size="11" lengthAdjust="spacingAndGlyphs" textLength="60" x="440.5" y="408.1348">State feed()</text><!--class PlayfulState--><rect fill="#FEFECE" filter="url(#f1q8rwqiw7u49t)" height="48" id="PlayfulState" style="stroke: #A80036; stroke-width: 1.5;" width="97" x="570.5" y="360"/><ellipse cx="585.5" cy="376" fill="#ADD1B2" rx="11" ry="11" style="stroke: #A80036; stroke-width: 1.0;"/><path d="M588.4731,381.6431 Q587.8921,381.9419 587.2529,382.0913 Q586.6138,382.2407 585.9082,382.2407 Q583.4014,382.2407 582.0815,380.5889 Q580.7617,378.937 580.7617,375.8159 Q580.7617,372.6865 582.0815,371.0347 Q583.4014,369.3828 585.9082,369.3828 Q586.6138,369.3828 587.2612,369.5322 Q587.9087,369.6816 588.4731,369.9805 L588.4731,372.7031 Q587.8423,372.1221 587.2488,371.8523 Q586.6553,371.5825 586.0244,371.5825 Q584.6797,371.5825 583.9949,372.6492 Q583.3101,373.7158 583.3101,375.8159 Q583.3101,377.9077 583.9949,378.9744 Q584.6797,380.041 586.0244,380.041 Q586.6553,380.041 587.2488,379.7712 Q587.8423,379.5015 588.4731,378.9204 Z "/><text fill="#000000" font-family="sans-serif" font-size="12" lengthAdjust="spacingAndGlyphs" textLength="65" x="599.5" y="380.5352">PlayfulState</text><line style="stroke: #A80036; stroke-width: 1.5;" x1="571.5" x2="666.5" y1="392" y2="392"/><line style="stroke: #A80036; stroke-width: 1.5;" x1="571.5" x2="666.5" y1="400" y2="400"/><!--class SleepingState--><rect fill="#FEFECE" filter="url(#f1q8rwqiw7u49t)" height="48" id="SleepingState" style="stroke: #A80036; stroke-width: 1.5;" width="108" x="703" y="360"/><ellipse cx="718" cy="376" fill="#ADD1B2" rx="11" ry="11" style="stroke: #A80036; stroke-width: 1.0;"/><path d="M720.9731,381.6431 Q720.3921,381.9419 719.7529,382.0913 Q719.1138,382.2407 718.4082,382.2407 Q715.9014,382.2407 714.5815,380.5889 Q713.2617,378.937 713.2617,375.8159 Q713.2617,372.6865 714.5815,371.0347 Q715.9014,369.3828 718.4082,369.3828 Q719.1138,369.3828 719.7612,369.5322 Q720.4087,369.6816 720.9731,369.9805 L720.9731,372.7031 Q720.3423,372.1221 719.7488,371.8523 Q719.1553,371.5825 718.5244,371.5825 Q717.1797,371.5825 716.4949,372.6492 Q715.8101,373.7158 715.8101,375.8159 Q715.8101,377.9077 716.4949,378.9744 Q717.1797,380.041 718.5244,380.041 Q719.1553,380.041 719.7488,379.7712 Q720.3423,379.5015 720.9731,378.9204 Z "/><text fill="#000000" font-family="sans-serif" font-size="12" lengthAdjust="spacingAndGlyphs" textLength="76" x="732" y="380.5352">SleepingState</text><line style="stroke: #A80036; stroke-width: 1.5;" x1="704" x2="810" y1="392" y2="392"/><line style="stroke: #A80036; stroke-width: 1.5;" x1="704" x2="810" y1="400" y2="400"/><!--class DeathState--><rect fill="#FEFECE" filter="url(#f1q8rwqiw7u49t)" height="48" id="DeathState" style="stroke: #A80036; stroke-width: 1.5;" width="94" x="846" y="360"/><ellipse cx="861" cy="376" fill="#ADD1B2" rx="11" ry="11" style="stroke: #A80036; stroke-width: 1.0;"/><path d="M863.9731,381.6431 Q863.3921,381.9419 862.7529,382.0913 Q862.1138,382.2407 861.4082,382.2407 Q858.9014,382.2407 857.5815,380.5889 Q856.2617,378.937 856.2617,375.8159 Q856.2617,372.6865 857.5815,371.0347 Q858.9014,369.3828 861.4082,369.3828 Q862.1138,369.3828 862.7612,369.5322 Q863.4087,369.6816 863.9731,369.9805 L863.9731,372.7031 Q863.3423,372.1221 862.7488,371.8523 Q862.1553,371.5825 861.5244,371.5825 Q860.1797,371.5825 859.4949,372.6492 Q858.8101,373.7158 858.8101,375.8159 Q858.8101,377.9077 859.4949,378.9744 Q860.1797,380.041 861.5244,380.041 Q862.1553,380.041 862.7488,379.7712 Q863.3423,379.5015 863.9731,378.9204 Z "/><text fill="#000000" font-family="sans-serif" font-size="12" lengthAdjust="spacingAndGlyphs" textLength="62" x="875" y="380.5352">DeathState</text><line style="stroke: #A80036; stroke-width: 1.5;" x1="847" x2="939" y1="392" y2="392"/><line style="stroke: #A80036; stroke-width: 1.5;" x1="847" x2="939" y1="400" y2="400"/><!--link State to DigestingState--><path d="M472.1317,155.1735 C452.6842,176.4051 432.9217,200.163 417,224 C387.1668,268.6644 363.4596,327.2856 351.4999,359.7365 " fill="none" id="State-DigestingState" style="stroke: #A80036; stroke-width: 1.0;"/><polygon fill="none" points="467.05,150.3591,485.8341,140.5531,477.265,159.9328,467.05,150.3591" style="stroke: #A80036; stroke-width: 1.0;"/><!--link State to HungryState--><path d="M533.8543,160.5098 C519.9332,224.1936 501.4981,308.5272 491.7356,353.1872 " fill="none" id="State-HungryState" style="stroke: #A80036; stroke-width: 1.0;"/><polygon fill="none" points="527.0891,158.6791,538.1988,140.6354,540.7662,161.6689,527.0891,158.6791" style="stroke: #A80036; stroke-width: 1.0;"/><!--link State to PlayfulState--><path d="M570.1643,160.5948 C584.7922,227.5122 604.3949,317.187 613.6865,359.6928 " fill="none" id="State-PlayfulState" style="stroke: #A80036; stroke-width: 1.0;"/><polygon fill="none" points="563.2338,161.6689,565.8012,140.6354,576.9109,158.6791,563.2338,161.6689" style="stroke: #A80036; stroke-width: 1.0;"/><!--link State to SleepingState--><path d="M631.0768,155.5113 C650.1446,176.6641 669.4726,200.2999 685,224 C714.2963,268.7162 737.2628,327.3182 748.8097,359.7518 " fill="none" id="State-SleepingState" style="stroke: #A80036; stroke-width: 1.0;"/><polygon fill="none" points="625.7182,160.0265,617.2965,140.5823,636.0056,150.5307,625.7182,160.0265" style="stroke: #A80036; stroke-width: 1.0;"/><!--link State to DeathState--><path d="M646.6103,108.6381 C705.5314,132.2176 779.1488,169.8881 828,224 C863.8631,263.7252 881.3157,325.8411 888.5958,359.8095 " fill="none" id="State-DeathState" style="stroke: #A80036; stroke-width: 1.0;"/><polygon fill="none" points="643.7906,115.0532,627.6482,101.3265,648.8275,101.9907,643.7906,115.0532" style="stroke: #A80036; stroke-width: 1.0;"/><!--link State to Animal--><path d="M476.2648,104.4253 C415.3303,128.7984 330.0881,169.27 269,224 C264.8789,227.6922 260.8111,231.5494 256.8063,235.5365 " fill="none" id="State-Animal" style="stroke: #A80036; stroke-width: 1.0;"/><polygon fill="#A80036" points="247.5802,245.0589,254.628,243.5331,255.9303,236.4406,248.8825,237.9664,247.5802,245.0589" style="stroke: #A80036; stroke-width: 1.0;"/><text fill="#000000" font-family="sans-serif" font-size="13" lengthAdjust="spacingAndGlyphs" textLength="80" x="333" y="190.5684">current state</text><!--link GenusSpecies to Animal--><path d="M22.0733,147.1627 C15.0148,162.0454 11.9543,178.091 17,194 C24.1373,216.5038 35.0079,238.6424 47.5333,259.408 " fill="none" id="GenusSpecies-Animal" style="stroke: #A80036; stroke-width: 1.0;"/><polygon fill="#A80036" points="54.4349,270.4654,54.6512,263.2575,48.0809,260.2857,47.8647,267.4935,54.4349,270.4654" style="stroke: #A80036; stroke-width: 1.0;"/><text fill="#000000" font-family="sans-serif" font-size="13" lengthAdjust="spacingAndGlyphs" textLength="89" x="18" y="190.5684">genus species</text><!--link GenusSpecies to Animal--><path d="M104.8682,147.2061 C107.3769,157.1789 109.8288,167.3317 112,177 C114.4743,188.0179 116.9192,199.3896 119.3056,210.8694 " fill="none" id="GenusSpecies-Animal" style="stroke: #A80036; stroke-width: 1.0;"/><polygon fill="#A80036" points="121.9737,223.8632,124.6851,217.1813,119.56,212.1085,116.8486,218.7904,121.9737,223.8632" style="stroke: #A80036; stroke-width: 1.0;"/><text fill="#000000" font-family="sans-serif" font-size="13" lengthAdjust="spacingAndGlyphs" textLength="50" x="117" y="190.5684">devours</text><text fill="#000000" font-family="sans-serif" font-size="13" lengthAdjust="spacingAndGlyphs" textLength="8" x="98.2853" y="167.163">n</text><!--
@startuml
enum GenusSpecies {

    LION,
    GAZELLE,
    FLAMINGO

	-readableType: String
    -type: String

    +String getReadableType()
    +String getType()
}

class Animal {
	-sleep: int
    -awake: int
    -digest: int

    -currentState: State

    -name: String
    -genusSpecies: GenusSpecies
    -devours: GenusSpecies[]
    -collectionAmount: int
    
    +void feed()
    +void tick()
    +int collect()
    +boolean devours(Animal other)

    +boolean isAsleep()
    +boolean isPlayful()
    +boolean isHungry()
    +boolean isDigesting()
    +boolean isDead()

    +int getSleep()
    +int getDigest()
    +int getAwake()
    +String getName()
}

abstract class State {
	#{static}logger: Logger
    #animal: Animal
    -t: int
    -duration: int
    State tick()
    abstract State successor()
}

class DigestingState extends State {
}

class HungryState extends State {
    State feed()
}

class PlayfulState extends State {
}

class SleepingState extends State {
}

class DeathState extends State {
}

State - -* Animal : current state
GenusSpecies - -* Animal: genus species
GenusSpecies "n" - -* Animal: devours

@enduml

PlantUML version 1.2017.16(Sun Sep 03 12:53:37 CEST 2017)
(GPL source distribution)
Java Runtime: Java(TM) SE Runtime Environment
JVM: Java HotSpot(TM) 64-Bit Server VM
Java Version: 1.8.0_144-b01
Operating System: Mac OS X
OS Version: 10.12.6
Default Encoding: UTF-8
Language: en
Country: US
--></g></svg>