<?xml version="1.0" encoding="UTF-8" standalone="no"?><svg xmlns="http://www.w3.org/2000/svg" xmlns:xlink="http://www.w3.org/1999/xlink" contentScriptType="application/ecmascript" contentStyleType="text/css" height="512px" preserveAspectRatio="none" style="width:1311px;height:512px;" version="1.1" viewBox="0 0 1311 512" width="1311px" zoomAndPan="magnify"><defs><filter height="300%" id="f1462ftjllf60y" width="300%" x="-1" y="-1"><feGaussianBlur result="blurOut" stdDeviation="2.0"/><feColorMatrix in="blurOut" result="blurOut2" type="matrix" values="0 0 0 0 0 0 0 0 0 0 0 0 0 0 0 0 0 0 .4 0"/><feOffset dx="4.0" dy="4.0" in="blurOut2" result="blurOut3"/><feBlend in="SourceGraphic" in2="blurOut3" mode="normal"/></filter></defs><g><!--class GenusSpecies--><rect fill="#FEFECE" filter="url(#f1462ftjllf60y)" height="137.6328" id="GenusSpecies" style="stroke: #A80036; stroke-width: 1.5;" width="169" x="6" y="8"/><ellipse cx="42.6" cy="24" fill="#EB937F" rx="11" ry="11" style="stroke: #A80036; stroke-width: 1.0;"/><path d="M46.7094,30 L38.9906,30 L38.9906,17.6094 L46.7094,17.6094 L46.7094,19.7656 L41.4438,19.7656 L41.4438,22.4375 L46.2094,22.4375 L46.2094,24.5938 L41.4438,24.5938 L41.4438,27.8438 L46.7094,27.8438 L46.7094,30 Z "/><text fill="#000000" font-family="sans-serif" font-size="12" lengthAdjust="spacingAndGlyphs" textLength="89" x="61.4" y="28.1543">GenusSpecies</text><line style="stroke: #A80036; stroke-width: 1.5;" x1="7" x2="174" y1="40" y2="40"/><text fill="#000000" font-family="sans-serif" font-size="11" lengthAdjust="spacingAndGlyphs" textLength="30" x="26" y="54.2104">LION,</text><text fill="#000000" font-family="sans-serif" font-size="11" lengthAdjust="spacingAndGlyphs" textLength="55" x="26" y="67.0151">GAZELLE,</text><text fill="#000000" font-family="sans-serif" font-size="11" lengthAdjust="spacingAndGlyphs" textLength="57" x="26" y="79.8198">FLAMINGO</text><rect fill="none" height="6" style="stroke: #C82930; stroke-width: 1.0;" width="6" x="14" y="87.3164"/><text fill="#000000" font-family="sans-serif" font-size="11" lengthAdjust="spacingAndGlyphs" textLength="119" x="26" y="92.6245">readableType: String</text><rect fill="none" height="6" style="stroke: #C82930; stroke-width: 1.0;" width="6" x="14" y="100.1211"/><text fill="#000000" font-family="sans-serif" font-size="11" lengthAdjust="spacingAndGlyphs" textLength="66" x="26" y="105.4292">type: String</text><line style="stroke: #A80036; stroke-width: 1.5;" x1="7" x2="174" y1="112.0234" y2="112.0234"/><ellipse cx="17" cy="123.9258" fill="#84BE84" rx="3" ry="3" style="stroke: #038048; stroke-width: 1.0;"/><text fill="#000000" font-family="sans-serif" font-size="11" lengthAdjust="spacingAndGlyphs" textLength="143" x="26" y="126.2339">String getReadableType()</text><ellipse cx="17" cy="136.7305" fill="#84BE84" rx="3" ry="3" style="stroke: #038048; stroke-width: 1.0;"/><text fill="#000000" font-family="sans-serif" font-size="11" lengthAdjust="spacingAndGlyphs" textLength="91" x="26" y="139.0386">String getType()</text><!--class ZooElement--><rect fill="#FEFECE" filter="url(#f1462ftjllf60y)" height="112.0234" id="ZooElement" style="stroke: #A80036; stroke-width: 1.5;" width="204" x="237.5" y="21"/><ellipse cx="297.25" cy="37" fill="#ADD1B2" rx="11" ry="11" style="stroke: #A80036; stroke-width: 1.0;"/><path d="M300.2188,42.6406 Q299.6406,42.9375 299,43.0859 Q298.3594,43.2344 297.6563,43.2344 Q295.1563,43.2344 293.8359,41.5859 Q292.5156,39.9375 292.5156,36.8125 Q292.5156,33.6875 293.8359,32.0313 Q295.1563,30.375 297.6563,30.375 Q298.3594,30.375 299.0078,30.5313 Q299.6563,30.6875 300.2188,30.9844 L300.2188,33.7031 Q299.5938,33.125 299,32.8516 Q298.4063,32.5781 297.7813,32.5781 Q296.4375,32.5781 295.75,33.6484 Q295.0625,34.7188 295.0625,36.8125 Q295.0625,38.9063 295.75,39.9766 Q296.4375,41.0469 297.7813,41.0469 Q298.4063,41.0469 299,40.7734 Q299.5938,40.5 300.2188,39.9219 L300.2188,42.6406 Z "/><text fill="#000000" font-family="sans-serif" font-size="12" lengthAdjust="spacingAndGlyphs" textLength="76" x="317.75" y="41.1543">ZooElement</text><line style="stroke: #A80036; stroke-width: 1.5;" x1="238.5" x2="440.5" y1="53" y2="53"/><rect fill="none" height="6" style="stroke: #C82930; stroke-width: 1.0;" width="6" x="245.5" y="61.9023"/><text fill="#000000" font-family="sans-serif" font-size="11" lengthAdjust="spacingAndGlyphs" textLength="32" x="257.5" y="67.2104">id: int</text><line style="stroke: #A80036; stroke-width: 1.5;" x1="238.5" x2="440.5" y1="73.8047" y2="73.8047"/><polygon fill="#FFFF44" points="248.5,80.707,252.5,84.707,248.5,88.707,244.5,84.707" style="stroke: #B38D22; stroke-width: 1.0;"/><text fill="#000000" font-family="sans-serif" font-size="11" lengthAdjust="spacingAndGlyphs" textLength="178" x="257.5" y="88.0151">ZooElement(boolean isGround)</text><ellipse cx="248.5" cy="98.5117" fill="#84BE84" rx="3" ry="3" style="stroke: #038048; stroke-width: 1.0;"/><text fill="#000000" font-family="sans-serif" font-size="11" lengthAdjust="spacingAndGlyphs" textLength="54" x="257.5" y="100.8198">int getId()</text><ellipse cx="248.5" cy="111.3164" fill="#84BE84" rx="3" ry="3" style="stroke: #038048; stroke-width: 1.0;"/><text fill="#000000" font-family="sans-serif" font-size="11" lengthAdjust="spacingAndGlyphs" textLength="109" x="257.5" y="113.6245">boolean isGround()</text><ellipse cx="248.5" cy="124.1211" fill="#84BE84" rx="3" ry="3" style="stroke: #038048; stroke-width: 1.0;"/><text fill="#000000" font-family="sans-serif" font-size="11" lengthAdjust="spacingAndGlyphs" textLength="105" x="257.5" y="126.4292">abstract void tick()</text><!--class Animal--><rect fill="#FEFECE" filter="url(#f1462ftjllf60y)" height="278.4844" id="Animal" style="stroke: #A80036; stroke-width: 1.5;" width="201" x="45" y="223"/><ellipse cx="120.75" cy="239" fill="#ADD1B2" rx="11" ry="11" style="stroke: #A80036; stroke-width: 1.0;"/><path d="M123.7188,244.6406 Q123.1406,244.9375 122.5,245.0859 Q121.8594,245.2344 121.1563,245.2344 Q118.6563,245.2344 117.3359,243.5859 Q116.0156,241.9375 116.0156,238.8125 Q116.0156,235.6875 117.3359,234.0313 Q118.6563,232.375 121.1563,232.375 Q121.8594,232.375 122.5078,232.5313 Q123.1563,232.6875 123.7188,232.9844 L123.7188,235.7031 Q123.0938,235.125 122.5,234.8516 Q121.9063,234.5781 121.2813,234.5781 Q119.9375,234.5781 119.25,235.6484 Q118.5625,236.7188 118.5625,238.8125 Q118.5625,240.9063 119.25,241.9766 Q119.9375,243.0469 121.2813,243.0469 Q121.9063,243.0469 122.5,242.7734 Q123.0938,242.5 123.7188,241.9219 L123.7188,244.6406 Z "/><text fill="#000000" font-family="sans-serif" font-size="12" lengthAdjust="spacingAndGlyphs" textLength="41" x="141.25" y="243.1543">Animal</text><line style="stroke: #A80036; stroke-width: 1.5;" x1="46" x2="245" y1="255" y2="255"/><rect fill="none" height="6" style="stroke: #C82930; stroke-width: 1.0;" width="6" x="53" y="263.9023"/><text fill="#000000" font-family="sans-serif" font-size="11" lengthAdjust="spacingAndGlyphs" textLength="53" x="65" y="269.2104">sleep: int</text><rect fill="none" height="6" style="stroke: #C82930; stroke-width: 1.0;" width="6" x="53" y="276.707"/><text fill="#000000" font-family="sans-serif" font-size="11" lengthAdjust="spacingAndGlyphs" textLength="58" x="65" y="282.0151">awake: int</text><rect fill="none" height="6" style="stroke: #C82930; stroke-width: 1.0;" width="6" x="53" y="289.5117"/><text fill="#000000" font-family="sans-serif" font-size="11" lengthAdjust="spacingAndGlyphs" textLength="57" x="65" y="294.8198">digest: int</text><rect fill="none" height="6" style="stroke: #C82930; stroke-width: 1.0;" width="6" x="53" y="302.3164"/><text fill="#000000" font-family="sans-serif" font-size="11" lengthAdjust="spacingAndGlyphs" textLength="109" x="65" y="307.6245">currentState: State</text><rect fill="none" height="6" style="stroke: #C82930; stroke-width: 1.0;" width="6" x="53" y="315.1211"/><text fill="#000000" font-family="sans-serif" font-size="11" lengthAdjust="spacingAndGlyphs" textLength="74" x="65" y="320.4292">name: String</text><rect fill="none" height="6" style="stroke: #C82930; stroke-width: 1.0;" width="6" x="53" y="327.9258"/><text fill="#000000" font-family="sans-serif" font-size="11" lengthAdjust="spacingAndGlyphs" textLength="170" x="65" y="333.2339">genusSpecies: GenusSpecies</text><rect fill="none" height="6" style="stroke: #C82930; stroke-width: 1.0;" width="6" x="53" y="340.7305"/><text fill="#000000" font-family="sans-serif" font-size="11" lengthAdjust="spacingAndGlyphs" textLength="144" x="65" y="346.0386">devours: GenusSpecies[]</text><rect fill="none" height="6" style="stroke: #C82930; stroke-width: 1.0;" width="6" x="53" y="353.5352"/><text fill="#000000" font-family="sans-serif" font-size="11" lengthAdjust="spacingAndGlyphs" textLength="118" x="65" y="358.8433">collectionAmount: int</text><line style="stroke: #A80036; stroke-width: 1.5;" x1="46" x2="245" y1="365.4375" y2="365.4375"/><ellipse cx="56" cy="377.3398" fill="#84BE84" rx="3" ry="3" style="stroke: #038048; stroke-width: 1.0;"/><text fill="#000000" font-family="sans-serif" font-size="11" lengthAdjust="spacingAndGlyphs" textLength="60" x="65" y="379.6479">void feed()</text><ellipse cx="56" cy="390.1445" fill="#84BE84" rx="3" ry="3" style="stroke: #038048; stroke-width: 1.0;"/><text fill="#000000" font-family="sans-serif" font-size="11" lengthAdjust="spacingAndGlyphs" textLength="175" x="65" y="392.4526">boolean devours(Animal other)</text><ellipse cx="56" cy="402.9492" fill="#84BE84" rx="3" ry="3" style="stroke: #038048; stroke-width: 1.0;"/><text fill="#000000" font-family="sans-serif" font-size="11" lengthAdjust="spacingAndGlyphs" textLength="105" x="65" y="405.2573">boolean isAsleep()</text><ellipse cx="56" cy="415.7539" fill="#84BE84" rx="3" ry="3" style="stroke: #038048; stroke-width: 1.0;"/><text fill="#000000" font-family="sans-serif" font-size="11" lengthAdjust="spacingAndGlyphs" textLength="104" x="65" y="418.062">boolean isPlayful()</text><ellipse cx="56" cy="428.5586" fill="#84BE84" rx="3" ry="3" style="stroke: #038048; stroke-width: 1.0;"/><text fill="#000000" font-family="sans-serif" font-size="11" lengthAdjust="spacingAndGlyphs" textLength="107" x="65" y="430.8667">boolean isHungry()</text><ellipse cx="56" cy="441.3633" fill="#84BE84" rx="3" ry="3" style="stroke: #038048; stroke-width: 1.0;"/><text fill="#000000" font-family="sans-serif" font-size="11" lengthAdjust="spacingAndGlyphs" textLength="120" x="65" y="443.6714">boolean isDigesting()</text><ellipse cx="56" cy="454.168" fill="#84BE84" rx="3" ry="3" style="stroke: #038048; stroke-width: 1.0;"/><text fill="#000000" font-family="sans-serif" font-size="11" lengthAdjust="spacingAndGlyphs" textLength="76" x="65" y="456.4761">int getSleep()</text><ellipse cx="56" cy="466.9727" fill="#84BE84" rx="3" ry="3" style="stroke: #038048; stroke-width: 1.0;"/><text fill="#000000" font-family="sans-serif" font-size="11" lengthAdjust="spacingAndGlyphs" textLength="80" x="65" y="469.2808">int getDigest()</text><ellipse cx="56" cy="479.7773" fill="#84BE84" rx="3" ry="3" style="stroke: #038048; stroke-width: 1.0;"/><text fill="#000000" font-family="sans-serif" font-size="11" lengthAdjust="spacingAndGlyphs" textLength="80" x="65" y="482.0854">int getAwake()</text><ellipse cx="56" cy="492.582" fill="#84BE84" rx="3" ry="3" style="stroke: #038048; stroke-width: 1.0;"/><text fill="#000000" font-family="sans-serif" font-size="11" lengthAdjust="spacingAndGlyphs" textLength="97" x="65" y="494.8901">String getName()</text><!--class Decoration--><rect fill="#FEFECE" filter="url(#f1462ftjllf60y)" height="73.6094" id="Decoration" style="stroke: #A80036; stroke-width: 1.5;" width="117" x="281" y="325"/><ellipse cx="303.2" cy="341" fill="#ADD1B2" rx="11" ry="11" style="stroke: #A80036; stroke-width: 1.0;"/><path d="M306.1688,346.6406 Q305.5906,346.9375 304.95,347.0859 Q304.3094,347.2344 303.6063,347.2344 Q301.1063,347.2344 299.7859,345.5859 Q298.4656,343.9375 298.4656,340.8125 Q298.4656,337.6875 299.7859,336.0313 Q301.1063,334.375 303.6063,334.375 Q304.3094,334.375 304.9578,334.5313 Q305.6063,334.6875 306.1688,334.9844 L306.1688,337.7031 Q305.5438,337.125 304.95,336.8516 Q304.3563,336.5781 303.7313,336.5781 Q302.3875,336.5781 301.7,337.6484 Q301.0125,338.7188 301.0125,340.8125 Q301.0125,342.9063 301.7,343.9766 Q302.3875,345.0469 303.7313,345.0469 Q304.3563,345.0469 304.95,344.7734 Q305.5438,344.5 306.1688,343.9219 L306.1688,346.6406 Z "/><text fill="#000000" font-family="sans-serif" font-size="12" lengthAdjust="spacingAndGlyphs" textLength="69" x="318.8" y="345.1543">Decoration</text><line style="stroke: #A80036; stroke-width: 1.5;" x1="282" x2="397" y1="357" y2="357"/><rect fill="none" height="6" style="stroke: #C82930; stroke-width: 1.0;" width="6" x="289" y="365.9023"/><text fill="#000000" font-family="sans-serif" font-size="11" lengthAdjust="spacingAndGlyphs" textLength="66" x="301" y="371.2104">type: String</text><line style="stroke: #A80036; stroke-width: 1.5;" x1="282" x2="397" y1="377.8047" y2="377.8047"/><ellipse cx="292" cy="389.707" fill="#84BE84" rx="3" ry="3" style="stroke: #038048; stroke-width: 1.0;"/><text fill="#000000" font-family="sans-serif" font-size="11" lengthAdjust="spacingAndGlyphs" textLength="91" x="301" y="392.0151">String getType()</text><!--class Ground--><rect fill="#FEFECE" filter="url(#f1462ftjllf60y)" height="73.6094" id="Ground" style="stroke: #A80036; stroke-width: 1.5;" width="117" x="433" y="325"/><ellipse cx="465.55" cy="341" fill="#ADD1B2" rx="11" ry="11" style="stroke: #A80036; stroke-width: 1.0;"/><path d="M468.5188,346.6406 Q467.9406,346.9375 467.3,347.0859 Q466.6594,347.2344 465.9563,347.2344 Q463.4563,347.2344 462.1359,345.5859 Q460.8156,343.9375 460.8156,340.8125 Q460.8156,337.6875 462.1359,336.0313 Q463.4563,334.375 465.9563,334.375 Q466.6594,334.375 467.3078,334.5313 Q467.9563,334.6875 468.5188,334.9844 L468.5188,337.7031 Q467.8938,337.125 467.3,336.8516 Q466.7063,336.5781 466.0813,336.5781 Q464.7375,336.5781 464.05,337.6484 Q463.3625,338.7188 463.3625,340.8125 Q463.3625,342.9063 464.05,343.9766 Q464.7375,345.0469 466.0813,345.0469 Q466.7063,345.0469 467.3,344.7734 Q467.8938,344.5 468.5188,343.9219 L468.5188,346.6406 Z "/><text fill="#000000" font-family="sans-serif" font-size="12" lengthAdjust="spacingAndGlyphs" textLength="46" x="483.45" y="345.1543">Ground</text><line style="stroke: #A80036; stroke-width: 1.5;" x1="434" x2="549" y1="357" y2="357"/><rect fill="none" height="6" style="stroke: #C82930; stroke-width: 1.0;" width="6" x="441" y="365.9023"/><text fill="#000000" font-family="sans-serif" font-size="11" lengthAdjust="spacingAndGlyphs" textLength="66" x="453" y="371.2104">type: String</text><line style="stroke: #A80036; stroke-width: 1.5;" x1="434" x2="549" y1="377.8047" y2="377.8047"/><ellipse cx="444" cy="389.707" fill="#84BE84" rx="3" ry="3" style="stroke: #038048; stroke-width: 1.0;"/><text fill="#000000" font-family="sans-serif" font-size="11" lengthAdjust="spacingAndGlyphs" textLength="91" x="453" y="392.0151">String getType()</text><!--class State--><rect fill="#FEFECE" filter="url(#f1462ftjllf60y)" height="124.8281" id="State" style="stroke: #A80036; stroke-width: 1.5;" width="164" x="786.5" y="14.5"/><ellipse cx="847.25" cy="30.5" fill="#A9DCDF" rx="11" ry="11" style="stroke: #A80036; stroke-width: 1.0;"/><path d="M847.3594,25.8438 L846.2031,30.9219 L848.5313,30.9219 L847.3594,25.8438 Z M845.875,23.6094 L848.8594,23.6094 L852.2188,36 L849.7656,36 L849,32.9375 L845.7188,32.9375 L844.9688,36 L842.5313,36 L845.875,23.6094 Z "/><text fill="#000000" font-family="sans-serif" font-size="12" font-style="italic" lengthAdjust="spacingAndGlyphs" textLength="34" x="867.75" y="34.6543">State</text><line style="stroke: #A80036; stroke-width: 1.5;" x1="787.5" x2="949.5" y1="46.5" y2="46.5"/><polygon fill="none" points="797.5,53.4023,801.5,57.4023,797.5,61.4023,793.5,57.4023" style="stroke: #B38D22; stroke-width: 1.0;"/><text fill="#000000" font-family="sans-serif" font-size="11" lengthAdjust="spacingAndGlyphs" text-decoration="underline" textLength="83" x="806.5" y="60.7104">logger: Logger</text><line style="stroke: #000000; stroke-width: 1.0;" x1="806.5" x2="889.5" y1="62.7104" y2="62.7104"/><polygon fill="none" points="797.5,66.207,801.5,70.207,797.5,74.207,793.5,70.207" style="stroke: #B38D22; stroke-width: 1.0;"/><text fill="#000000" font-family="sans-serif" font-size="11" lengthAdjust="spacingAndGlyphs" textLength="84" x="806.5" y="73.5151">animal: Animal</text><rect fill="none" height="6" style="stroke: #C82930; stroke-width: 1.0;" width="6" x="794.5" y="81.0117"/><text fill="#000000" font-family="sans-serif" font-size="11" lengthAdjust="spacingAndGlyphs" textLength="26" x="806.5" y="86.3198">t: int</text><rect fill="none" height="6" style="stroke: #C82930; stroke-width: 1.0;" width="6" x="794.5" y="93.8164"/><text fill="#000000" font-family="sans-serif" font-size="11" lengthAdjust="spacingAndGlyphs" textLength="69" x="806.5" y="99.1245">duration: int</text><line style="stroke: #A80036; stroke-width: 1.5;" x1="787.5" x2="949.5" y1="105.7188" y2="105.7188"/><text fill="#000000" font-family="sans-serif" font-size="11" lengthAdjust="spacingAndGlyphs" textLength="61" x="792.5" y="119.9292">State tick()</text><text fill="#000000" font-family="sans-serif" font-size="11" lengthAdjust="spacingAndGlyphs" textLength="152" x="792.5" y="132.7339">abstract State successor()</text><!--class DigestingState--><rect fill="#FEFECE" filter="url(#f1462ftjllf60y)" height="48" id="DigestingState" style="stroke: #A80036; stroke-width: 1.5;" width="125" x="1030" y="338"/><ellipse cx="1045" cy="354" fill="#ADD1B2" rx="11" ry="11" style="stroke: #A80036; stroke-width: 1.0;"/><path d="M1047.9688,359.6406 Q1047.3906,359.9375 1046.75,360.0859 Q1046.1094,360.2344 1045.4063,360.2344 Q1042.9063,360.2344 1041.5859,358.5859 Q1040.2656,356.9375 1040.2656,353.8125 Q1040.2656,350.6875 1041.5859,349.0313 Q1042.9063,347.375 1045.4063,347.375 Q1046.1094,347.375 1046.7578,347.5313 Q1047.4063,347.6875 1047.9688,347.9844 L1047.9688,350.7031 Q1047.3438,350.125 1046.75,349.8516 Q1046.1563,349.5781 1045.5313,349.5781 Q1044.1875,349.5781 1043.5,350.6484 Q1042.8125,351.7188 1042.8125,353.8125 Q1042.8125,355.9063 1043.5,356.9766 Q1044.1875,358.0469 1045.5313,358.0469 Q1046.1563,358.0469 1046.75,357.7734 Q1047.3438,357.5 1047.9688,356.9219 L1047.9688,359.6406 Z "/><text fill="#000000" font-family="sans-serif" font-size="12" lengthAdjust="spacingAndGlyphs" textLength="93" x="1059" y="358.1543">DigestingState</text><line style="stroke: #A80036; stroke-width: 1.5;" x1="1031" x2="1154" y1="370" y2="370"/><line style="stroke: #A80036; stroke-width: 1.5;" x1="1031" x2="1154" y1="378" y2="378"/><!--class HungryState--><rect fill="#FEFECE" filter="url(#f1462ftjllf60y)" height="60.8047" id="HungryState" style="stroke: #A80036; stroke-width: 1.5;" width="110" x="1190.5" y="331.5"/><ellipse cx="1205.5" cy="347.5" fill="#ADD1B2" rx="11" ry="11" style="stroke: #A80036; stroke-width: 1.0;"/><path d="M1208.4688,353.1406 Q1207.8906,353.4375 1207.25,353.5859 Q1206.6094,353.7344 1205.9063,353.7344 Q1203.4063,353.7344 1202.0859,352.0859 Q1200.7656,350.4375 1200.7656,347.3125 Q1200.7656,344.1875 1202.0859,342.5313 Q1203.4063,340.875 1205.9063,340.875 Q1206.6094,340.875 1207.2578,341.0313 Q1207.9063,341.1875 1208.4688,341.4844 L1208.4688,344.2031 Q1207.8438,343.625 1207.25,343.3516 Q1206.6563,343.0781 1206.0313,343.0781 Q1204.6875,343.0781 1204,344.1484 Q1203.3125,345.2188 1203.3125,347.3125 Q1203.3125,349.4063 1204,350.4766 Q1204.6875,351.5469 1206.0313,351.5469 Q1206.6563,351.5469 1207.25,351.2734 Q1207.8438,351 1208.4688,350.4219 L1208.4688,353.1406 Z "/><text fill="#000000" font-family="sans-serif" font-size="12" lengthAdjust="spacingAndGlyphs" textLength="78" x="1219.5" y="351.6543">HungryState</text><line style="stroke: #A80036; stroke-width: 1.5;" x1="1191.5" x2="1299.5" y1="363.5" y2="363.5"/><line style="stroke: #A80036; stroke-width: 1.5;" x1="1191.5" x2="1299.5" y1="371.5" y2="371.5"/><text fill="#000000" font-family="sans-serif" font-size="11" lengthAdjust="spacingAndGlyphs" textLength="67" x="1196.5" y="385.7104">State feed()</text><!--class PlayfulState--><rect fill="#FEFECE" filter="url(#f1462ftjllf60y)" height="48" id="PlayfulState" style="stroke: #A80036; stroke-width: 1.5;" width="106" x="594.5" y="338"/><ellipse cx="609.5" cy="354" fill="#ADD1B2" rx="11" ry="11" style="stroke: #A80036; stroke-width: 1.0;"/><path d="M612.4688,359.6406 Q611.8906,359.9375 611.25,360.0859 Q610.6094,360.2344 609.9063,360.2344 Q607.4063,360.2344 606.0859,358.5859 Q604.7656,356.9375 604.7656,353.8125 Q604.7656,350.6875 606.0859,349.0313 Q607.4063,347.375 609.9063,347.375 Q610.6094,347.375 611.2578,347.5313 Q611.9063,347.6875 612.4688,347.9844 L612.4688,350.7031 Q611.8438,350.125 611.25,349.8516 Q610.6563,349.5781 610.0313,349.5781 Q608.6875,349.5781 608,350.6484 Q607.3125,351.7188 607.3125,353.8125 Q607.3125,355.9063 608,356.9766 Q608.6875,358.0469 610.0313,358.0469 Q610.6563,358.0469 611.25,357.7734 Q611.8438,357.5 612.4688,356.9219 L612.4688,359.6406 Z "/><text fill="#000000" font-family="sans-serif" font-size="12" lengthAdjust="spacingAndGlyphs" textLength="74" x="623.5" y="358.1543">PlayfulState</text><line style="stroke: #A80036; stroke-width: 1.5;" x1="595.5" x2="699.5" y1="370" y2="370"/><line style="stroke: #A80036; stroke-width: 1.5;" x1="595.5" x2="699.5" y1="378" y2="378"/><!--class SleepingState--><rect fill="#FEFECE" filter="url(#f1462ftjllf60y)" height="48" id="SleepingState" style="stroke: #A80036; stroke-width: 1.5;" width="120" x="735.5" y="338"/><ellipse cx="750.5" cy="354" fill="#ADD1B2" rx="11" ry="11" style="stroke: #A80036; stroke-width: 1.0;"/><path d="M753.4688,359.6406 Q752.8906,359.9375 752.25,360.0859 Q751.6094,360.2344 750.9063,360.2344 Q748.4063,360.2344 747.0859,358.5859 Q745.7656,356.9375 745.7656,353.8125 Q745.7656,350.6875 747.0859,349.0313 Q748.4063,347.375 750.9063,347.375 Q751.6094,347.375 752.2578,347.5313 Q752.9063,347.6875 753.4688,347.9844 L753.4688,350.7031 Q752.8438,350.125 752.25,349.8516 Q751.6563,349.5781 751.0313,349.5781 Q749.6875,349.5781 749,350.6484 Q748.3125,351.7188 748.3125,353.8125 Q748.3125,355.9063 749,356.9766 Q749.6875,358.0469 751.0313,358.0469 Q751.6563,358.0469 752.25,357.7734 Q752.8438,357.5 753.4688,356.9219 L753.4688,359.6406 Z "/><text fill="#000000" font-family="sans-serif" font-size="12" lengthAdjust="spacingAndGlyphs" textLength="88" x="764.5" y="358.1543">SleepingState</text><line style="stroke: #A80036; stroke-width: 1.5;" x1="736.5" x2="854.5" y1="370" y2="370"/><line style="stroke: #A80036; stroke-width: 1.5;" x1="736.5" x2="854.5" y1="378" y2="378"/><!--class DeathState--><rect fill="#FEFECE" filter="url(#f1462ftjllf60y)" height="48" id="DeathState" style="stroke: #A80036; stroke-width: 1.5;" width="104" x="890.5" y="338"/><ellipse cx="905.5" cy="354" fill="#ADD1B2" rx="11" ry="11" style="stroke: #A80036; stroke-width: 1.0;"/><path d="M908.4688,359.6406 Q907.8906,359.9375 907.25,360.0859 Q906.6094,360.2344 905.9063,360.2344 Q903.4063,360.2344 902.0859,358.5859 Q900.7656,356.9375 900.7656,353.8125 Q900.7656,350.6875 902.0859,349.0313 Q903.4063,347.375 905.9063,347.375 Q906.6094,347.375 907.2578,347.5313 Q907.9063,347.6875 908.4688,347.9844 L908.4688,350.7031 Q907.8438,350.125 907.25,349.8516 Q906.6563,349.5781 906.0313,349.5781 Q904.6875,349.5781 904,350.6484 Q903.3125,351.7188 903.3125,353.8125 Q903.3125,355.9063 904,356.9766 Q904.6875,358.0469 906.0313,358.0469 Q906.6563,358.0469 907.25,357.7734 Q907.8438,357.5 908.4688,356.9219 L908.4688,359.6406 Z "/><text fill="#000000" font-family="sans-serif" font-size="12" lengthAdjust="spacingAndGlyphs" textLength="72" x="919.5" y="358.1543">DeathState</text><line style="stroke: #A80036; stroke-width: 1.5;" x1="891.5" x2="993.5" y1="370" y2="370"/><line style="stroke: #A80036; stroke-width: 1.5;" x1="891.5" x2="993.5" y1="378" y2="378"/><!--link State to Animal--><path d="M773.299,93.418 C625.379,118.596 348.506,170.964 263.5,223 C257.585,226.621 251.816,230.638 246.21,234.958 " fill="none" id="State-Animal" style="stroke: #A80036; stroke-width: 1.0;"/><polygon fill="#A80036" points="786.331,91.214,779.7482,88.2702,774.4989,93.2144,781.0817,96.1582,786.331,91.214" style="stroke: #A80036; stroke-width: 1.0;"/><text fill="#000000" font-family="sans-serif" font-size="13" lengthAdjust="spacingAndGlyphs" textLength="83" x="387.5" y="189.0669">current state</text><!--link GenusSpecies to Animal--><path d="M112.635,158.774 C114.011,164.587 115.316,170.374 116.5,176 C119.68,191.111 122.678,206.984 125.453,222.816 " fill="none" id="GenusSpecies-Animal" style="stroke: #A80036; stroke-width: 1.0;"/><polygon fill="#A80036" points="109.528,146.055,107.0658,152.8327,112.3751,157.7124,114.8373,150.9347,109.528,146.055" style="stroke: #A80036; stroke-width: 1.0;"/><text fill="#000000" font-family="sans-serif" font-size="13" lengthAdjust="spacingAndGlyphs" textLength="91" x="121.5" y="189.0669">genus species</text><!--link GenusSpecies to Animal--><path d="M54.471,158.857 C52.7277,170.271 52.7132,181.896 55.5,193 C57.997,202.949 61.209,212.952 64.9262,222.85 " fill="none" id="GenusSpecies-Animal" style="stroke: #A80036; stroke-width: 1.0;"/><polygon fill="#A80036" points="57.1166,146.1,51.9815,151.1627,54.6797,157.85,59.8148,152.7873,57.1166,146.1" style="stroke: #A80036; stroke-width: 1.0;"/><text fill="#000000" font-family="sans-serif" font-size="13" lengthAdjust="spacingAndGlyphs" textLength="51" x="56.5" y="189.0669">devours</text><text fill="#000000" font-family="sans-serif" font-size="13" lengthAdjust="spacingAndGlyphs" textLength="8" x="45.4367" y="165.7318">n</text><!--link ZooElement to Animal--><path d="M290.135,150.012 C274.856,172.3 257.48,197.648 240.201,222.854 " fill="none" id="ZooElement-Animal" style="stroke: #A80036; stroke-width: 1.0;"/><polygon fill="none" points="284.552,145.775,301.634,133.237,296.1,153.691,284.552,145.775" style="stroke: #A80036; stroke-width: 1.0;"/><!--link ZooElement to Decoration--><path d="M339.5,153.528 C339.5,208.951 339.5,281.771 339.5,324.762 " fill="none" id="ZooElement-Decoration" style="stroke: #A80036; stroke-width: 1.0;"/><polygon fill="none" points="332.5,153.237,339.5,133.237,346.5,153.237,332.5,153.237" style="stroke: #A80036; stroke-width: 1.0;"/><!--link ZooElement to Ground--><path d="M378.696,150.977 C408.624,206.698 448.59,281.108 472.037,324.762 " fill="none" id="ZooElement-Ground" style="stroke: #A80036; stroke-width: 1.0;"/><polygon fill="none" points="372.465,154.169,369.168,133.237,384.798,147.544,372.465,154.169" style="stroke: #A80036; stroke-width: 1.0;"/><!--link State to DigestingState--><path d="M950.554,154.126 C971.548,175.448 993.31,199.3 1011.5,223 C1040.42,260.685 1066.85,309.598 1081.21,337.925 " fill="none" id="State-DigestingState" style="stroke: #A80036; stroke-width: 1.0;"/><polygon fill="none" points="945.411,158.883,936.196,139.802,955.299,148.971,945.411,158.883" style="stroke: #A80036; stroke-width: 1.0;"/><!--link State to HungryState--><path d="M969.729,107.884 C1034,130.964 1115.49,168.313 1172.5,223 C1204.28,253.491 1225.13,300.876 1236.12,331.423 " fill="none" id="State-HungryState" style="stroke: #A80036; stroke-width: 1.0;"/><polygon fill="none" points="967.413,114.49,950.813,101.319,972.003,101.263,967.413,114.49" style="stroke: #A80036; stroke-width: 1.0;"/><!--link State to PlayfulState--><path d="M779.963,153.429 C758.006,174.605 735.603,198.561 717.5,223 C690.077,260.022 667.981,309.374 656.382,337.92 " fill="none" id="State-PlayfulState" style="stroke: #A80036; stroke-width: 1.0;"/><polygon fill="none" points="775.296,148.208,794.654,139.59,784.895,158.399,775.296,148.208" style="stroke: #A80036; stroke-width: 1.0;"/><!--link State to SleepingState--><path d="M847.554,159.201 C831.856,220.057 811.437,299.216 801.483,337.806 " fill="none" id="State-SleepingState" style="stroke: #A80036; stroke-width: 1.0;"/><polygon fill="none" points="840.796,157.373,852.57,139.756,854.353,160.87,840.796,157.373" style="stroke: #A80036; stroke-width: 1.0;"/><!--link State to DeathState--><path d="M889.733,159.201 C905.646,220.057 926.344,299.216 936.435,337.806 " fill="none" id="State-DeathState" style="stroke: #A80036; stroke-width: 1.0;"/><polygon fill="none" points="882.936,160.876,884.648,139.756,896.48,157.334,882.936,160.876" style="stroke: #A80036; stroke-width: 1.0;"/></g></svg>