<?xml version="1.0" encoding="UTF-8" standalone="no"?><svg xmlns="http://www.w3.org/2000/svg" xmlns:xlink="http://www.w3.org/1999/xlink" contentScriptType="application/ecmascript" contentStyleType="text/css" height="499px" preserveAspectRatio="none" style="width:257px;height:499px;" version="1.1" viewBox="0 0 257 499" width="257px" zoomAndPan="magnify"><defs><filter height="300%" id="fodimo14elih2" width="300%" x="-1" y="-1"><feGaussianBlur result="blurOut" stdDeviation="2.0"/><feColorMatrix in="blurOut" result="blurOut2" type="matrix" values="0 0 0 0 0 0 0 0 0 0 0 0 0 0 0 0 0 0 .4 0"/><feOffset dx="4.0" dy="4.0" in="blurOut2" result="blurOut3"/><feBlend in="SourceGraphic" in2="blurOut3" mode="normal"/></filter></defs><g><ellipse cx="141.5" cy="18" fill="#000000" filter="url(#fodimo14elih2)" rx="10" ry="10" style="stroke: none; stroke-width: 1.0;"/><rect fill="#FEFECE" filter="url(#fodimo14elih2)" height="50" rx="12.5" ry="12.5" style="stroke: #A80036; stroke-width: 1.5;" width="69" x="107" y="89"/><line style="stroke: #A80036; stroke-width: 1.5;" x1="107" x2="176" y1="115.2969" y2="115.2969"/><text fill="#000000" font-family="sans-serif" font-size="14" lengthAdjust="spacingAndGlyphs" textLength="49" x="117" y="106.9951">Hungry</text><rect fill="#FEFECE" filter="url(#fodimo14elih2)" height="50" rx="12.5" ry="12.5" style="stroke: #A80036; stroke-width: 1.5;" width="57" x="6" y="216"/><line style="stroke: #A80036; stroke-width: 1.5;" x1="6" x2="63" y1="242.2969" y2="242.2969"/><text fill="#000000" font-family="sans-serif" font-size="14" lengthAdjust="spacingAndGlyphs" textLength="37" x="16" y="233.9951">Dead</text><ellipse cx="34.5" cy="352" fill="none" filter="url(#fodimo14elih2)" rx="10" ry="10" style="stroke: #000000; stroke-width: 1.0;"/><ellipse cx="35" cy="352.5" fill="#000000" rx="6" ry="6" style="stroke: none; stroke-width: 1.0;"/><rect fill="#FEFECE" filter="url(#fodimo14elih2)" height="50" rx="12.5" ry="12.5" style="stroke: #A80036; stroke-width: 1.5;" width="86" x="98.5" y="216"/><line style="stroke: #A80036; stroke-width: 1.5;" x1="98.5" x2="184.5" y1="242.2969" y2="242.2969"/><text fill="#000000" font-family="sans-serif" font-size="14" lengthAdjust="spacingAndGlyphs" textLength="66" x="108.5" y="233.9951">Digesting</text><rect fill="#FEFECE" filter="url(#fodimo14elih2)" height="50" rx="12.5" ry="12.5" style="stroke: #A80036; stroke-width: 1.5;" width="63" x="118" y="327"/><line style="stroke: #A80036; stroke-width: 1.5;" x1="118" x2="181" y1="353.2969" y2="353.2969"/><text fill="#000000" font-family="sans-serif" font-size="14" lengthAdjust="spacingAndGlyphs" textLength="43" x="128" y="344.9951">Playful</text><rect fill="#FEFECE" filter="url(#fodimo14elih2)" height="50" rx="12.5" ry="12.5" style="stroke: #A80036; stroke-width: 1.5;" width="80" x="165.5" y="438"/><line style="stroke: #A80036; stroke-width: 1.5;" x1="165.5" x2="245.5" y1="464.2969" y2="464.2969"/><text fill="#000000" font-family="sans-serif" font-size="14" lengthAdjust="spacingAndGlyphs" textLength="60" x="175.5" y="455.9951">Sleeping</text><!--link *start to Hungry--><path d="M141.5,28.013 C141.5,40.698 141.5,64.409 141.5,83.57 " fill="none" id="*start-Hungry" style="stroke: #A80036; stroke-width: 1.0;"/><polygon fill="#A80036" points="141.5,88.84,145.5,79.84,141.5,83.84,137.5,79.84,141.5,88.84" style="stroke: #A80036; stroke-width: 1.0;"/><!--link Hungry to Dead--><path d="M115.154,139.177 C105.7707,148.219 95.3441,158.78 86.5,169 C74.9124,182.39 63.1588,198.208 53.7646,211.512 " fill="none" id="Hungry-Dead" style="stroke: #A80036; stroke-width: 1.0;"/><polygon fill="#A80036" points="50.6728,215.92,59.1146,210.847,53.5431,211.826,52.5642,206.2545,50.6728,215.92" style="stroke: #A80036; stroke-width: 1.0;"/><text fill="#000000" font-family="sans-serif" font-size="13" lengthAdjust="spacingAndGlyphs" textLength="45" x="87.5" y="182.0669">not fed</text><!--link Dead to *end--><path d="M34.5,266.191 C34.5,287.79 34.5,318.701 34.5,336.626 " fill="none" id="Dead-*end" style="stroke: #A80036; stroke-width: 1.0;"/><polygon fill="#A80036" points="34.5,341.748,38.5,332.748,34.5,336.748,30.5,332.748,34.5,341.748" style="stroke: #A80036; stroke-width: 1.0;"/><!--link Hungry to Digesting--><path d="M141.5,139.101 C141.5,159.593 141.5,189.076 141.5,210.884 " fill="none" id="Hungry-Digesting" style="stroke: #A80036; stroke-width: 1.0;"/><polygon fill="#A80036" points="141.5,215.973,145.5,206.973,141.5,210.973,137.5,206.973,141.5,215.973" style="stroke: #A80036; stroke-width: 1.0;"/><text fill="#000000" font-family="sans-serif" font-size="13" lengthAdjust="spacingAndGlyphs" textLength="20" x="142.5" y="182.0669">fed</text><!--link Digesting to Playful--><path d="M143.275,266.191 C144.477,282.56 146.071,304.279 147.345,321.64 " fill="none" id="Digesting-Playful" style="stroke: #A80036; stroke-width: 1.0;"/><polygon fill="#A80036" points="147.73,326.877,151.0584,317.6076,147.3629,321.8905,143.08,318.195,147.73,326.877" style="stroke: #A80036; stroke-width: 1.0;"/><!--link Playful to Sleeping--><path d="M161.928,377.191 C170.411,393.7015 181.689,415.6542 190.646,433.0879 " fill="none" id="Playful-Sleeping" style="stroke: #A80036; stroke-width: 1.0;"/><polygon fill="#A80036" points="193.107,437.877,192.5519,428.0438,190.822,433.4296,185.4362,431.6997,193.107,437.877" style="stroke: #A80036; stroke-width: 1.0;"/><!--link Sleeping to Hungry--><path d="M209.159,437.6567 C215.022,392.7969 223.744,294.493 201.5,216 C193.952,189.365 177.541,162.581 163.787,143.293 " fill="none" id="Sleeping-Hungry" style="stroke: #A80036; stroke-width: 1.0;"/><polygon fill="#A80036" points="160.717,139.049,162.7499,148.6858,163.6471,143.1005,169.2323,143.9977,160.717,139.049" style="stroke: #A80036; stroke-width: 1.0;"/></g></svg>